<svg width="919" height="307" viewBox="0 0 919 307" fill="none" xmlns="http://www.w3.org/2000/svg">
<path d="M314.309 246.065C317.488 242.886 317.504 238.492 314.35 234.825L312.534 232.713C312.155 232.273 311.603 232.019 311.022 232.018L233.6 231.849C179.826 231.732 153.696 231.325 150.264 230.554C142.044 228.705 135.497 223.674 131.873 216.422C127.579 207.829 127.674 207.468 134.014 208.317C136.901 208.703 182.464 209.02 235.264 209.02C313.783 209.02 332.294 208.767 336.925 207.631C343.903 205.92 353.159 199.173 358.696 191.762C362.411 186.789 368.161 173.783 369.414 167.516C370.808 160.546 364.167 154.867 357.736 157.531C354.944 158.687 353.105 162.13 350.262 171.52C348.579 177.075 344.625 183.488 341.08 186.411C333.299 192.824 337.891 192.576 232.211 192.285L136.733 192.021C136.424 192.02 136.12 191.948 135.844 191.81L131.264 189.52C125.351 186.563 120.311 179.762 119.24 173.294C118.851 170.943 118.26 168.57 117.926 168.02C117.593 167.47 117.236 166.57 117.133 166.02C116.886 164.7 110.977 142.251 105.288 121.02C102.783 111.67 99.0112 97.4946 96.907 89.5196C83.2688 37.8318 79.2423 23.5066 77.2184 19.4739C74.4949 14.0473 67.7368 7.05053 62.8149 4.56171C56.492 1.36445 49.1391 0.519531 27.6375 0.519531H7.43819C6.90775 0.519531 6.39904 0.730247 6.02397 1.10532L3.68668 3.44263C-0.549637 7.67895 -0.099143 12.988 4.73916 15.8461C7.15299 17.2719 10.775 17.5196 29.2176 17.5196C52.6406 17.5196 53.8114 17.7425 58.943 23.1803C61.6 25.9958 67.1534 42.5058 69.8209 55.5196C70.4409 58.5445 71.5518 62.8597 72.2895 65.1088C73.0272 67.3579 74.9965 74.3329 76.6658 80.6088C78.3351 86.8847 81.9609 100.345 84.7231 110.52C87.4852 120.695 91.3142 134.87 93.2319 142.02C95.1496 149.17 98.4656 161.32 100.601 169.02C102.736 176.72 105.917 188.195 107.67 194.52C113.146 214.28 113.966 216.849 116.854 223.301C120.26 230.909 129.058 240.058 136.264 243.487C146.709 248.458 145.222 248.38 231.059 248.452L311.025 248.519C311.556 248.519 312.065 248.309 312.441 247.933L314.309 246.065Z" fill="#F69E34"/>
<path d="M171.431 304.458C174.089 303.324 177.782 300.961 179.639 299.208C183.808 295.27 187.764 286.731 187.764 281.669C187.764 271.354 180.021 260.641 170.129 257.27C163.627 255.053 161.44 255.074 155.282 257.413C145.543 261.112 139.814 268.335 138.227 278.912C136.653 289.412 143.611 300.818 153.831 304.494C160.851 307.018 165.451 307.01 171.431 304.458Z" fill="#F69E34"/>
<path d="M299.431 304.459C305.972 301.671 311.197 296.344 313.885 289.721C315.887 284.787 316.009 283.58 315.059 278.037C313.303 267.784 307.687 260.918 297.993 257.17C292.587 255.081 288.915 255.085 283.534 257.189C276.797 259.823 271.721 264.371 269.078 270.143C265.529 277.897 265.119 283.95 267.732 290.02C273.526 303.481 287.158 309.691 299.431 304.459Z" fill="#F69E34"/>
<path fill-rule="evenodd" clip-rule="evenodd" d="M424.264 196.63C426.464 195.614 429.355 193.599 430.688 192.152C432.021 190.704 433.444 189.52 433.85 189.52C434.256 189.52 434.892 191.32 435.264 193.52L435.658 195.853C435.82 196.815 436.654 197.52 437.63 197.52H443.404H448.849C449.962 197.52 450.86 196.612 450.849 195.5L450.566 166.27C450.273 135.961 450.195 134.891 447.986 130.756C445.157 125.458 439.072 120.956 431.94 118.883C424.02 116.58 409.082 117.378 401.763 120.494C393.9 123.842 393.848 123.929 394.853 131.915C395.33 135.708 395.939 139.028 396.205 139.295C396.472 139.561 399.882 138.596 403.784 137.149C412.249 134.012 423.848 133.49 427.547 136.08C430.453 138.116 432.764 142.669 432.764 146.359V147.17C432.764 148.323 431.79 149.238 430.639 149.166L424.4 148.777C410.813 147.929 401.145 151.034 394.512 158.376C390.343 162.991 388.777 167.7 388.769 175.648C388.762 185.096 393.537 193.149 401.222 196.64C406.758 199.155 418.804 199.15 424.264 196.63ZM407.764 172.95C407.764 177.503 409.832 181.201 413.121 182.528C418.82 184.828 426.867 182.746 430.596 178.006C432.295 175.846 432.764 173.897 432.764 168.992C432.764 161.783 432.46 161.52 424.15 161.52C413.893 161.52 407.764 165.795 407.764 172.95Z" fill="white"/>
<path d="M503.764 197.092L505.884 196.32C506.705 196.021 507.237 195.223 507.197 194.35L506.904 187.918C506.706 183.574 506.481 179.944 506.403 179.851C506.324 179.759 504.144 180.167 501.558 180.759C495.614 182.12 490.741 180.845 489.041 177.486C488.169 175.763 487.788 168.988 487.776 155.02L487.759 137.09C487.758 135.958 488.695 135.051 489.826 135.089L497.259 135.338L504.695 135.588C505.825 135.625 506.762 134.72 506.762 133.589V127.088V120.52C506.762 119.415 505.866 118.52 504.762 118.52H497.299H489.775C488.695 118.52 487.81 117.662 487.776 116.582L487.549 109.27L487.322 101.957C487.288 100.878 486.403 100.02 485.323 100.02H478.261H471.2C470.12 100.02 469.235 100.878 469.201 101.957L468.974 109.27L468.746 116.582C468.713 117.662 467.828 118.52 466.747 118.52H463.183H459.752C458.62 118.52 457.713 119.458 457.753 120.59L457.971 126.77L458.196 133.19C458.233 134.225 459.054 135.062 460.089 135.117L463.761 135.311L467.334 135.501C468.409 135.558 469.246 136.456 469.227 137.532L468.932 154.559C468.752 164.985 469.051 176.39 469.599 179.904C471.659 193.141 478.301 198.574 492.261 198.443C496.661 198.401 501.839 197.794 503.764 197.092Z" fill="white"/>
<path fill-rule="evenodd" clip-rule="evenodd" d="M551.382 196.117C554.197 194.806 557.23 192.691 558.123 191.417C560.04 188.68 561.46 189.65 561.937 194.02L562.076 195.303C562.184 196.289 562.998 197.047 563.989 197.085L570.014 197.312L575.688 197.526C576.822 197.568 577.764 196.661 577.764 195.527V168.721C577.764 137.351 577.255 133.475 572.286 126.96C570.83 125.052 567.305 122.26 564.452 120.755C559.589 118.192 558.479 118.021 546.763 118.046C535.487 118.069 533.676 118.329 528.264 120.701C522.36 123.287 522.259 123.4 521.973 127.675C521.629 132.823 523.058 140.11 524.351 139.805C524.853 139.687 528.137 138.407 531.649 136.961C539.664 133.66 550.056 133.171 554.22 135.899C557.11 137.793 559.764 142.982 559.764 146.738C559.764 148.985 559.582 149.02 547.993 149.02C536.71 149.02 535.945 149.156 529.554 152.302C521.52 156.257 518.309 159.835 516.161 167.223C513.33 176.963 516.341 188.807 522.925 193.829C527.935 197.651 530.461 198.387 538.764 198.447C544.645 198.489 547.368 197.986 551.382 196.117ZM536.328 166.626C531.963 171.813 533.442 180.237 539.121 182.528C545.007 184.904 552.678 182.787 557.06 177.579C559.32 174.893 559.764 173.412 559.764 168.55C559.764 161.867 559.348 161.518 551.432 161.525C544.011 161.533 539.264 163.136 536.328 166.626Z" fill="white"/>
<path d="M640.476 196.401C649.149 193.227 649.335 192.925 647.829 184.498C646.759 178.509 646.297 177.499 644.911 178.105C630.269 184.507 619.268 183.662 612.498 175.616C607.793 170.024 606.154 158.21 608.748 148.577C610.082 143.623 615.073 137.706 619.466 135.871C624.433 133.795 634.072 134.166 639.859 136.656C642.59 137.831 645.016 138.601 645.25 138.367C645.484 138.133 646.213 134.684 646.871 130.702C647.981 123.975 647.931 123.358 646.165 121.998C639.177 116.618 619.433 115.972 609.6 120.801C595.036 127.953 586.618 144.355 588.035 162.822C589.319 179.569 597.568 191.722 610.906 196.52C618.62 199.295 632.725 199.239 640.476 196.401Z" fill="white"/>
<path fill-rule="evenodd" clip-rule="evenodd" d="M690.258 196.522C692.528 195.424 695.706 193.145 697.322 191.459L697.733 191.03C698.826 189.889 700.748 190.406 701.12 191.942L701.306 192.706L701.997 195.55C702.208 196.42 702.971 197.043 703.865 197.077L710.137 197.313L715.816 197.527C716.961 197.571 717.907 196.646 717.891 195.501L717.507 167.813C717.209 146.377 716.717 136.961 715.753 134.245C713.851 128.888 708.824 123.413 703.142 120.511C698.701 118.243 697.142 118.022 685.764 118.046C674.438 118.068 672.7 118.321 667.264 120.728L662.505 122.835C661.755 123.167 661.284 123.922 661.316 124.74L661.564 131.202C661.729 135.502 662.186 139.342 662.58 139.736C662.973 140.13 665.756 139.274 668.762 137.836C674.624 135.03 684.737 133.729 691.222 134.946C695.619 135.771 698.754 140.221 698.76 145.644L698.761 147.149C698.763 148.299 697.796 149.213 696.648 149.148L689.958 148.767C675.204 147.925 663.617 152.809 658.101 162.192C655.604 166.44 655.27 167.981 655.316 175.02C655.376 184.285 657.624 189.786 663.034 193.913C667.919 197.638 670.498 198.386 678.698 198.456C684.184 198.503 687.213 197.996 690.258 196.522ZM676.204 166.772C671.962 171.814 673.527 180.271 679.121 182.528C682.37 183.839 687.457 183.678 691.046 182.149C696.446 179.847 698.814 176.435 699.479 169.992C700.205 162.956 698.842 161.52 691.438 161.52C684.476 161.52 679.05 163.391 676.204 166.772Z" fill="white"/>
<path d="M749.764 169.973C750.319 139.939 750.453 139.318 757.09 136.169C763.376 133.186 772.223 134.754 774.383 139.233C774.857 140.216 775.474 153.62 775.754 169.02L776.228 195.056C776.248 196.146 777.137 197.02 778.228 197.02H785.264H792.264C793.368 197.02 794.264 196.124 794.264 195.02V166.52C794.264 132.018 793.832 129.525 786.755 123.131C781.76 118.618 777.086 117.234 768.333 117.676C762.38 117.977 760.186 118.589 756.178 121.067C753.488 122.73 750.742 125.184 750.076 126.52C748.692 129.297 748.024 128.238 747.552 122.52L747.41 120.792C747.326 119.781 746.5 118.993 745.487 118.957L739.014 118.729L732.834 118.511C731.703 118.472 730.764 119.378 730.764 120.51V158.016V195.531C730.764 196.66 731.697 197.565 732.826 197.53L740.014 197.307L747.361 197.078C748.427 197.045 749.279 196.182 749.299 195.116L749.764 169.973Z" fill="white"/>
<path fill-rule="evenodd" clip-rule="evenodd" d="M856.306 196.335C865.678 193.173 866.095 192.682 865.292 185.767C864.307 177.277 864.17 177.184 856.935 180.107C849.562 183.085 837.751 183.608 833.071 181.164C827.219 178.108 822.764 171.534 822.764 165.955V165.52C822.764 164.415 823.659 163.52 824.764 163.52H845.366H865.903C867.033 163.52 867.939 162.584 867.902 161.455L867.572 151.27C867.114 137.136 865.176 131.275 858.952 125.212C848.334 114.867 829.248 114.421 817.767 124.249C808.415 132.254 803.764 143.692 803.764 158.686C803.764 182.022 814.913 196.326 834.729 198.415C843.423 199.332 849.023 198.792 856.306 196.335ZM836.132 132.829C829.262 133.525 824.773 138.224 823.13 146.44L822.992 147.127C822.744 148.365 823.691 149.52 824.953 149.52H836.766H848.675C849.905 149.52 850.844 148.419 850.65 147.204L850.341 145.27C849.036 137.094 843.331 132.099 836.132 132.829Z" fill="white"/>
<path d="M914.249 197.312L917.28 196.502C918.155 196.268 918.764 195.475 918.764 194.569V187.745C918.764 179.5 918.733 179.396 916.514 180.202C915.276 180.652 911.869 181.02 908.943 181.02C900.543 181.02 899.997 179.412 899.863 154.27L899.774 137.53C899.768 136.422 900.665 135.52 901.774 135.52H909.263H916.764C917.868 135.52 918.764 134.624 918.764 133.52V127.02V120.52C918.764 119.415 917.868 118.52 916.764 118.52H909.263H901.763C900.659 118.52 899.763 117.624 899.763 116.52V108.981V101.509C899.763 100.379 898.827 99.4728 897.698 99.51L891.013 99.7306L884.138 99.9575C883.084 99.9923 882.238 100.84 882.205 101.894L881.976 109.269L881.748 116.582C881.715 117.661 880.83 118.519 879.749 118.519H876.726H873.763C872.659 118.519 871.763 119.415 871.763 120.519V127.019V133.519C871.763 134.624 872.659 135.519 873.763 135.519H876.763H879.763C880.868 135.519 881.763 136.415 881.763 137.519V157.338C881.763 180.709 882.633 186.541 886.933 192.007C891.587 197.925 903.389 200.217 914.249 197.312Z" fill="white"/>
<path d="M132.014 177.299C130.909 177.299 130.014 176.404 130.014 175.299V79.9707C130.014 78.8661 130.909 77.9707 132.014 77.9707H262.764C263.868 77.9707 264.764 78.8661 264.764 79.9707V175.299C264.764 176.404 263.868 177.299 262.764 177.299H132.014Z" fill="#4B8E96"/>
<path d="M275.764 77.9707C274.659 77.9707 273.764 78.8661 273.764 79.9707V175.299C273.764 176.404 274.659 177.299 275.764 177.299H339.764C340.868 177.299 341.764 176.404 341.764 175.299V79.9707C341.764 78.8661 340.868 77.9707 339.764 77.9707H326.801V117.063C326.801 118.841 324.654 119.735 323.392 118.482L310.409 105.592C309.627 104.815 308.365 104.818 307.586 105.597L294.73 118.453C293.47 119.712 291.316 118.82 291.316 117.038V77.9707H275.764Z" fill="#4B8E96"/>
<path d="M307.586 105.597C308.365 104.818 309.627 104.815 310.409 105.592L323.392 118.482C324.654 119.735 326.801 118.841 326.801 117.063V77.9707H291.316V117.038C291.316 118.82 293.47 119.712 294.73 118.453L307.586 105.597Z" fill="#204E68"/>
<path d="M177.144 64.4894C177.144 65.5939 178.039 66.4894 179.144 66.4894H229.442H280.829V5.01965H251.797V42.9002C251.797 44.5219 249.968 45.4694 248.644 44.5341L234.457 34.5185C233.764 34.029 232.837 34.0304 232.145 34.5221L218.07 44.5239C216.748 45.4633 214.916 44.5212 214.911 42.8993L214.802 5.01965H179.144C178.039 5.01965 177.144 5.91508 177.144 7.01965V64.4894Z" fill="#4B8E96"/>
<path d="M233.3 5.01965H214.802L214.911 42.8993C214.916 44.5212 216.748 45.4633 218.07 44.5239L232.145 34.5221C232.837 34.0304 233.764 34.029 234.457 34.5185L248.644 44.5341C249.968 45.4694 251.797 44.5219 251.797 42.9002V5.01965H233.3Z" fill="#204E68"/>
</svg>
