<svg width="1106" height="245" viewBox="0 0 1106 245" fill="none" xmlns="http://www.w3.org/2000/svg">
<path fill-rule="evenodd" clip-rule="evenodd" d="M193.963 193.547C125.789 193.547 117.621 193.38 114.539 191.917C112.649 191.02 110.623 189.389 110.036 188.292C107.831 184.173 104.286 172.414 104.826 171.009L270.348 170.465C273.8 170.465 276.925 169.066 279.187 166.804C281.449 164.542 320.167 45.2199 320.167 38.3164C320.167 31.4128 314.57 25.8164 307.667 25.8164L61.041 26.3562L56.6777 14.8753C52.0812 -0.431341 54.1075 0.547498 27.0173 0.547498L7.24316 0.541653C3.37555 0.541653 0.240234 3.67697 0.240234 7.54458C0.240234 11.4122 3.37555 14.5475 7.24316 14.5475L20.3318 14.5475C37.3681 15.0688 39.9314 15.6775 42.5886 19.8327C43.3676 21.0508 52.1507 49.1595 62.1067 82.2963C72.0627 115.433 84.2503 155.697 89.1904 171.772L98.601 203.249C99.6661 205.756 102.171 207.547 105.067 207.547H117.631C114.852 211.422 113.216 216.172 113.216 221.304C113.216 234.354 123.795 244.933 136.845 244.933C149.895 244.933 160.474 234.354 160.474 221.304C160.474 216.172 158.838 211.422 156.059 207.547H219.228C216.449 211.422 214.813 216.172 214.813 221.304C214.813 234.354 225.392 244.933 238.442 244.933C251.492 244.933 262.072 234.354 262.072 221.304C262.072 216.172 260.436 211.42 257.657 207.545H267.746C271.611 207.545 274.744 204.412 274.744 200.547C274.744 196.682 271.611 193.549 267.746 193.549L193.963 193.547ZM168.875 136.983H152.877L205.876 58.9832H221.866L168.875 136.983ZM149.307 98.5536C152.19 100.372 155.614 101.288 159.577 101.302C163.54 101.302 166.956 100.4 169.825 98.5962C172.709 96.778 174.932 94.1573 176.494 90.734C178.057 87.3107 178.838 83.1914 178.838 78.376C178.852 73.5891 178.078 69.5195 176.516 66.1672C174.953 62.8149 172.73 60.2652 169.847 58.518C166.963 56.7567 163.54 55.876 159.577 55.876C155.614 55.876 152.19 56.7496 149.307 58.4967C146.437 60.2439 144.222 62.7936 142.659 66.1459C141.111 69.4982 140.33 73.5749 140.315 78.376C140.301 83.163 141.075 87.2681 142.638 90.6914C144.2 94.1147 146.423 96.7354 149.307 98.5536ZM204.917 136.232C207.801 138.05 211.224 138.967 215.187 138.981C219.15 138.981 222.566 138.079 225.436 136.275C228.319 134.457 230.542 131.836 232.105 128.413C233.667 124.989 234.448 120.87 234.448 116.055C234.463 111.268 233.688 107.198 232.126 103.846C230.563 100.494 228.34 97.9439 225.457 96.1967C222.573 94.4354 219.15 93.5547 215.187 93.5547C211.224 93.5547 207.801 94.4283 204.917 96.1754C202.048 97.9226 199.832 100.472 198.269 103.825C196.721 107.177 195.94 111.254 195.926 116.055C195.911 120.842 196.686 124.947 198.248 128.37C199.811 131.793 202.034 134.414 204.917 136.232ZM136.845 234.598C143.942 234.598 149.695 228.841 149.695 221.74C149.695 214.638 143.942 208.881 136.845 208.881C129.748 208.881 123.995 214.638 123.995 221.74C123.995 228.841 129.748 234.598 136.845 234.598ZM238.442 234.598C245.539 234.598 251.292 228.841 251.292 221.74C251.292 214.638 245.539 208.881 238.442 208.881C231.346 208.881 225.592 214.638 225.592 221.74C225.592 228.841 231.346 234.598 238.442 234.598Z" fill="#DF9829"/>
<path d="M215.187 129.35C217.232 129.35 218.909 128.285 220.215 126.154C221.536 124.009 222.19 120.643 222.176 116.055C222.176 113.058 221.877 110.607 221.281 108.704C220.684 106.8 219.86 105.394 218.809 104.485C217.758 103.562 216.551 103.1 215.187 103.1C213.142 103.1 211.473 104.137 210.18 106.211C208.887 108.285 208.227 111.566 208.198 116.055C208.184 119.109 208.475 121.623 209.072 123.597C209.669 125.558 210.492 127.006 211.544 127.944C212.609 128.881 213.823 129.35 215.187 129.35Z" fill="#DF9829"/>
<path fill-rule="evenodd" clip-rule="evenodd" d="M215.187 138.981C211.224 138.967 207.801 138.05 204.917 136.232C202.034 134.414 199.811 131.793 198.248 128.37C196.686 124.947 195.911 120.842 195.926 116.055C195.94 111.254 196.721 107.177 198.269 103.825C199.832 100.472 202.048 97.9226 204.917 96.1754C207.801 94.4283 211.224 93.5547 215.187 93.5547C219.15 93.5547 222.573 94.4354 225.457 96.1967C228.34 97.9439 230.563 100.494 232.126 103.846C233.688 107.198 234.463 111.268 234.448 116.055C234.448 120.87 233.667 124.989 232.105 128.413C230.542 131.836 228.319 134.457 225.436 136.275C222.566 138.079 219.15 138.981 215.187 138.981ZM220.215 126.154C218.909 128.285 217.232 129.35 215.187 129.35C213.823 129.35 212.609 128.881 211.544 127.944C210.492 127.006 209.669 125.558 209.072 123.597C208.475 121.623 208.184 119.109 208.198 116.055C208.227 111.566 208.887 108.285 210.18 106.211C211.473 104.137 213.142 103.1 215.187 103.1C216.551 103.1 217.758 103.562 218.809 104.485C219.86 105.394 220.684 106.8 221.281 108.704C221.877 110.607 222.176 113.058 222.176 116.055C222.19 120.643 221.536 124.009 220.215 126.154Z" fill="white"/>
<path d="M152.877 136.983H168.875L221.866 58.9832H205.876L152.877 136.983Z" fill="white"/>
<path d="M159.577 91.6715C161.622 91.6715 163.298 90.6061 164.605 88.4755C165.926 86.3306 166.58 82.9641 166.565 78.376C166.565 75.3789 166.267 72.9286 165.67 71.0252C165.074 69.1218 164.25 67.7155 163.199 66.8064C162.148 65.8831 160.94 65.4215 159.577 65.4215C157.531 65.4215 155.862 66.4584 154.57 68.5323C153.277 70.6061 152.616 73.8874 152.588 78.376C152.574 81.43 152.865 83.9442 153.462 85.9186C154.058 87.8789 154.882 89.3277 155.933 90.2652C156.999 91.2027 158.213 91.6715 159.577 91.6715Z" fill="#DF9829"/>
<path fill-rule="evenodd" clip-rule="evenodd" d="M159.577 101.302C155.614 101.288 152.19 100.372 149.307 98.5536C146.423 96.7354 144.2 94.1147 142.638 90.6914C141.075 87.2681 140.301 83.163 140.315 78.376C140.33 73.5749 141.111 69.4982 142.659 66.1459C144.222 62.7936 146.437 60.2439 149.307 58.4967C152.19 56.7496 155.614 55.876 159.577 55.876C163.54 55.876 166.963 56.7567 169.847 58.518C172.73 60.2652 174.953 62.8149 176.516 66.1672C178.078 69.5195 178.852 73.5891 178.838 78.376C178.838 83.1914 178.057 87.3107 176.494 90.734C174.932 94.1573 172.709 96.778 169.825 98.5962C166.956 100.4 163.54 101.302 159.577 101.302ZM164.605 88.4755C163.298 90.6061 161.622 91.6715 159.577 91.6715C158.213 91.6715 156.999 91.2027 155.933 90.2652C154.882 89.3277 154.058 87.8789 153.462 85.9186C152.865 83.9442 152.574 81.43 152.588 78.376C152.616 73.8874 153.277 70.6061 154.57 68.5323C155.862 66.4584 157.531 65.4215 159.577 65.4215C160.94 65.4215 162.148 65.8831 163.199 66.8064C164.25 67.7155 165.074 69.1218 165.67 71.0252C166.267 72.9286 166.565 75.3789 166.565 78.376C166.58 82.9641 165.926 86.3306 164.605 88.4755Z" fill="white"/>
<path d="M414.946 194.081C414.79 192.77 414.161 191.752 413.056 191.027C411.952 190.303 410.598 189.94 408.994 189.94C407.82 189.94 406.794 190.13 405.914 190.51C405.043 190.889 404.361 191.411 403.87 192.075C403.387 192.739 403.145 193.494 403.145 194.34C403.145 195.047 403.313 195.655 403.65 196.164C403.995 196.664 404.435 197.083 404.97 197.419C405.504 197.747 406.065 198.019 406.652 198.234C407.238 198.441 407.777 198.609 408.269 198.739L410.96 199.463C411.65 199.645 412.418 199.895 413.263 200.214C414.117 200.533 414.933 200.969 415.709 201.521C416.494 202.064 417.141 202.763 417.65 203.617C418.159 204.471 418.413 205.519 418.413 206.761C418.413 208.193 418.038 209.487 417.288 210.643C416.546 211.799 415.459 212.717 414.027 213.399C412.604 214.08 410.874 214.421 408.838 214.421C406.941 214.421 405.297 214.115 403.909 213.502C402.528 212.89 401.442 212.036 400.648 210.94C399.863 209.845 399.419 208.572 399.315 207.123H402.628C402.714 208.124 403.05 208.952 403.637 209.608C404.232 210.255 404.983 210.738 405.888 211.057C406.803 211.367 407.786 211.523 408.838 211.523C410.063 211.523 411.163 211.324 412.138 210.927C413.113 210.522 413.885 209.961 414.454 209.245C415.023 208.521 415.308 207.675 415.308 206.709C415.308 205.829 415.062 205.113 414.57 204.561C414.079 204.009 413.432 203.561 412.629 203.216C411.827 202.871 410.96 202.569 410.029 202.31L406.768 201.378C404.698 200.783 403.059 199.934 401.851 198.829C400.644 197.725 400.04 196.28 400.04 194.495C400.04 193.011 400.441 191.717 401.243 190.613C402.054 189.5 403.141 188.638 404.504 188.025C405.875 187.404 407.406 187.094 409.097 187.094C410.805 187.094 412.323 187.4 413.652 188.012C414.98 188.616 416.032 189.444 416.809 190.497C417.594 191.549 418.008 192.744 418.051 194.081H414.946Z" fill="white"/>
<path d="M430.612 213.955V187.456H446.605V190.303H433.821V199.256H445.776V202.103H433.821V211.109H446.812V213.955H430.612Z" fill="white"/>
<path d="M476.701 187.456H479.91V205.001C479.91 206.813 479.483 208.43 478.629 209.853C477.784 211.268 476.589 212.385 475.045 213.205C473.501 214.015 471.689 214.421 469.611 214.421C467.532 214.421 465.72 214.015 464.176 213.205C462.632 212.385 461.433 211.268 460.579 209.853C459.734 208.43 459.311 206.813 459.311 205.001V187.456H462.52V204.743C462.52 206.036 462.805 207.188 463.374 208.197C463.943 209.198 464.754 209.987 465.806 210.565C466.867 211.134 468.136 211.419 469.611 211.419C471.086 211.419 472.354 211.134 473.415 210.565C474.476 209.987 475.286 209.198 475.847 208.197C476.416 207.188 476.701 206.036 476.701 204.743V187.456Z" fill="white"/>
<path d="M511.498 213.955H508.134L517.864 187.456H521.177L530.907 213.955H527.543L519.624 191.648H519.417L511.498 213.955ZM512.74 203.604H526.3V206.45H512.74V203.604Z" fill="white"/>
<path d="M537.412 190.303V187.456H557.287V190.303H548.954V213.955H545.745V190.303H537.412Z" fill="white"/>
<path d="M567.153 213.955H563.789L573.519 187.456H576.831L586.562 213.955H583.197L575.279 191.648H575.072L567.153 213.955ZM568.395 203.604H581.955V206.45H568.395V203.604Z" fill="white"/>
<path d="M617.69 195.737H614.481C614.291 194.814 613.959 194.003 613.485 193.304C613.019 192.606 612.45 192.019 611.777 191.545C611.113 191.062 610.375 190.699 609.564 190.458C608.754 190.216 607.908 190.096 607.028 190.096C605.424 190.096 603.97 190.501 602.668 191.312C601.374 192.123 600.343 193.317 599.576 194.896C598.816 196.475 598.437 198.411 598.437 200.706C598.437 203 598.816 204.937 599.576 206.515C600.343 208.094 601.374 209.288 602.668 210.099C603.97 210.91 605.424 211.316 607.028 211.316C607.908 211.316 608.754 211.195 609.564 210.953C610.375 210.712 611.113 210.354 611.777 209.879C612.45 209.396 613.019 208.805 613.485 208.107C613.959 207.399 614.291 206.589 614.481 205.674H617.69C617.449 207.028 617.009 208.24 616.37 209.31C615.732 210.38 614.938 211.29 613.99 212.04C613.041 212.782 611.975 213.347 610.794 213.735C609.62 214.123 608.365 214.317 607.028 214.317C604.768 214.317 602.758 213.765 600.999 212.661C599.239 211.557 597.855 209.987 596.845 207.951C595.836 205.916 595.331 203.5 595.331 200.706C595.331 197.911 595.836 195.495 596.845 193.46C597.855 191.424 599.239 189.854 600.999 188.75C602.758 187.646 604.768 187.094 607.028 187.094C608.365 187.094 609.62 187.288 610.794 187.676C611.975 188.064 613.041 188.633 613.99 189.384C614.938 190.126 615.732 191.032 616.37 192.101C617.009 193.162 617.449 194.374 617.69 195.737Z" fill="white"/>
<path d="M630.885 213.955H627.521L637.251 187.456H640.563L650.294 213.955H646.929L639.011 191.648H638.804L630.885 213.955ZM632.127 203.604H645.687V206.45H632.127V203.604Z" fill="white"/>
<path d="M669.521 213.955H661.344V187.456H669.884C672.454 187.456 674.654 187.987 676.483 189.048C678.311 190.1 679.713 191.614 680.688 193.589C681.662 195.556 682.15 197.911 682.15 200.654C682.15 203.414 681.658 205.791 680.675 207.783C679.691 209.767 678.26 211.294 676.379 212.364C674.499 213.425 672.213 213.955 669.521 213.955ZM664.553 211.109H669.314C671.505 211.109 673.321 210.686 674.762 209.84C676.202 208.995 677.276 207.792 677.984 206.231C678.691 204.669 679.044 202.81 679.044 200.654C679.044 198.515 678.695 196.673 677.996 195.129C677.298 193.576 676.254 192.386 674.865 191.558C673.476 190.721 671.747 190.303 669.677 190.303H664.553V211.109Z" fill="white"/>
<path d="M716.814 200.706C716.814 203.5 716.309 205.916 715.3 207.951C714.291 209.987 712.906 211.557 711.147 212.661C709.387 213.765 707.377 214.317 705.117 214.317C702.857 214.317 700.847 213.765 699.087 212.661C697.328 211.557 695.943 209.987 694.934 207.951C693.925 205.916 693.42 203.5 693.42 200.706C693.42 197.911 693.925 195.495 694.934 193.46C695.943 191.424 697.328 189.854 699.087 188.75C700.847 187.646 702.857 187.094 705.117 187.094C707.377 187.094 709.387 187.646 711.147 188.75C712.906 189.854 714.291 191.424 715.3 193.46C716.309 195.495 716.814 197.911 716.814 200.706ZM713.709 200.706C713.709 198.411 713.325 196.475 712.557 194.896C711.798 193.317 710.767 192.123 709.465 191.312C708.171 190.501 706.721 190.096 705.117 190.096C703.513 190.096 702.059 190.501 700.757 191.312C699.463 192.123 698.432 193.317 697.664 194.896C696.905 196.475 696.526 198.411 696.526 200.706C696.526 203 696.905 204.937 697.664 206.515C698.432 208.094 699.463 209.288 700.757 210.099C702.059 210.91 703.513 211.316 705.117 211.316C706.721 211.316 708.171 210.91 709.465 210.099C710.767 209.288 711.798 208.094 712.557 206.515C713.325 204.937 713.709 203 713.709 200.706Z" fill="white"/>
<path d="M767.316 187.456V213.955H764.21L749.771 193.149H749.512V213.955H746.303V187.456H749.408L763.9 208.314H764.159V187.456H767.316Z" fill="white"/>
<path d="M781.746 213.955H778.382L788.112 187.456H791.425L801.155 213.955H797.791L789.872 191.648H789.665L781.746 213.955ZM782.989 203.604H796.549V206.45H782.989V203.604Z" fill="white"/>
<path d="M832.585 187.456V213.955H829.376V187.456H832.585Z" fill="white"/>
<path d="M866.954 187.456V213.955H863.849L849.409 193.149H849.15V213.955H845.942V187.456H849.047L863.539 208.314H863.797V187.456H866.954Z" fill="white"/>
<path d="M878.849 190.303V187.456H898.723V190.303H890.391V213.955H887.182V190.303H878.849Z" fill="white"/>
<path d="M910.599 213.955V187.456H926.591V190.303H913.808V199.256H925.763V202.103H913.808V211.109H926.798V213.955H910.599Z" fill="white"/>
<path d="M939.298 213.955V187.456H948.252C950.322 187.456 952.021 187.81 953.35 188.517C954.678 189.216 955.661 190.178 956.3 191.402C956.938 192.627 957.257 194.02 957.257 195.582C957.257 197.143 956.938 198.528 956.3 199.735C955.661 200.943 954.682 201.892 953.363 202.582C952.043 203.263 950.356 203.604 948.303 203.604H941.058V200.706H948.2C949.615 200.706 950.753 200.499 951.616 200.084C952.487 199.67 953.117 199.084 953.505 198.325C953.902 197.557 954.1 196.643 954.1 195.582C954.1 194.521 953.902 193.593 953.505 192.8C953.108 192.006 952.474 191.394 951.603 190.963C950.732 190.523 949.58 190.303 948.148 190.303H942.507V213.955H939.298ZM951.771 202.051L958.292 213.955H954.566L948.148 202.051H951.771Z" fill="white"/>
<path d="M990.54 187.456V213.955H987.435L972.995 193.149H972.736V213.955H969.527V187.456H972.632L987.124 208.314H987.383V187.456H990.54Z" fill="white"/>
<path d="M1003.88 213.955V187.456H1019.88V190.303H1007.09V199.256H1019.05V202.103H1007.09V211.109H1020.08V213.955H1003.88Z" fill="white"/>
<path d="M1031.13 190.303V187.456H1051.01V190.303H1042.68V213.955H1039.47V190.303H1031.13Z" fill="white"/>
<path fill-rule="evenodd" clip-rule="evenodd" d="M383.145 123.079L432.766 122.066L442.292 144.031H457.539C465.925 144.031 472.786 143.755 472.786 143.418C472.786 143.081 461.77 117.872 448.306 87.3972L423.827 31.9894L393.537 31.0474L369.375 86.1729C356.086 116.492 345.224 141.946 345.236 142.738C345.249 143.53 351.975 143.94 360.182 143.649L375.105 143.121L383.145 123.079ZM409.007 63.3085C408.297 62.4985 404.383 70.0817 400.31 80.1603L392.902 98.4849H423.544L420.114 89.8313C418.227 85.0718 415.246 77.4885 413.49 72.9796C411.734 68.4706 409.716 64.1186 409.007 63.3085Z" fill="#DF9829"/>
<path d="M529.382 140.996C530.972 139.405 530.767 136.729 528.541 130.028C525.624 121.244 525.532 121.169 518.543 121.836C508.071 122.835 505.579 118.268 505.579 98.0796V82.0887H525.618V60.227H505.579V38.3652H476.43V60.227H463.677V82.0887H476.43L476.51 99.8512C476.622 124.895 481.119 135.784 493.737 141.568C500.283 144.569 526.225 144.152 529.382 140.996Z" fill="#DF9829"/>
<path fill-rule="evenodd" clip-rule="evenodd" d="M579.817 140.406C583.074 138.421 585.738 135.964 585.738 134.948C585.738 133.931 586.558 133.099 587.56 133.099C588.562 133.099 589.382 135.559 589.382 138.565V144.03H616.709V118.614C616.709 104.636 615.803 88.9728 614.695 83.8078C612.114 71.7749 602.712 61.8822 590.646 58.504C578.543 55.1153 554.358 56.7252 543.314 61.6546L534.593 65.5471L539.245 74.7286C541.804 79.7785 544.194 83.9103 544.556 83.9103C544.917 83.9103 548.156 82.6806 551.754 81.1776C555.351 79.6746 562.738 78.4449 568.171 78.4449C578.882 78.4449 584.494 81.6324 586.613 88.9202C587.781 92.934 587.49 93.0211 572.653 93.0992C543.487 93.2527 529.857 102.463 531.571 120.861C532.974 135.929 543.728 143.838 562.966 143.952C570.743 144 575.604 142.975 579.817 140.406ZM562.055 111.237C556.603 116.689 557.472 121.233 564.787 125.532C573.193 130.471 587.56 121.964 587.56 112.047C587.56 107.819 587.008 107.594 576.629 107.594C568.127 107.594 564.888 108.404 562.055 111.237Z" fill="#DF9829"/>
<path fill-rule="evenodd" clip-rule="evenodd" d="M692.347 140.625C696.373 138.796 702.112 134.498 705.1 131.075L710.532 124.852L713.454 130.342C715.062 133.361 719.571 137.708 723.474 140.001C729.435 143.502 732.673 144.081 743.693 143.613C755.323 143.12 757.445 142.453 762.366 137.737L767.919 132.417V144.03H795.246L795.239 115.336C795.234 99.5551 794.397 83.6494 793.381 79.9906C791 71.4178 779.533 61.0459 769.392 58.2926C754.121 54.1464 715.09 59.6594 715.09 65.9626C715.09 67.3518 721.806 81.8001 723.232 83.4788C723.456 83.7425 726.608 82.7177 730.237 81.2015C740.081 77.0885 755.415 77.5916 761.3 82.2207C763.94 84.2974 766.1 87.4671 766.1 89.2643C766.1 92.1245 763.884 92.6398 748.338 93.395C724.367 94.5593 713.505 100.634 710.566 114.522C709.865 117.832 708.752 120.272 708.092 119.945C707.432 119.619 702.934 117.331 698.097 114.863C689.92 110.689 689.177 110.596 687.531 113.538C685.278 117.563 676.446 122.17 671.001 122.161C663.449 122.148 655.345 115.645 652.959 107.681C647.2 88.4595 663.743 72.5252 680.475 81.1776C683.382 82.6805 686.579 85.345 687.581 87.0984C689.265 90.0464 690.177 89.8747 699.674 84.8212C705.323 81.8153 710.311 78.7742 710.758 78.0632C712.435 75.394 698.151 62.1429 690.41 59.1865C679.516 55.0262 657.027 56.274 646.648 61.6149C611.031 79.9408 616.243 130.551 654.958 142.328C663.909 145.051 684.688 144.104 692.347 140.625ZM741.534 110.556C737.318 114.772 738.739 122.52 744.235 125.287L744.436 125.388C746.88 126.619 748.2 127.283 749.57 127.413C751.179 127.565 752.857 126.98 756.504 125.708L756.755 125.62C763.204 123.372 766.097 119.237 766.097 112.268C766.097 107.776 765.676 107.594 755.296 107.594C747.754 107.594 743.602 108.487 741.534 110.556Z" fill="#DF9829"/>
<path fill-rule="evenodd" clip-rule="evenodd" d="M1021.55 140.793C1025.84 138.891 1030.51 135.933 1031.92 134.22C1034.21 131.443 1033.63 130.226 1026.55 123.017C1019.08 115.398 1018.38 115.083 1014.55 117.596C1008.48 121.57 996.91 122.869 989.461 120.41C983.537 118.455 977.427 112.667 977.427 109.01C977.427 108.231 991.891 107.594 1009.57 107.594H1041.71L1039.32 81.8419L1049.39 83.0002L1050.3 104.949C1051 121.926 1051.95 128.034 1054.5 131.908C1061.33 142.316 1075.51 147.237 1092.1 144.956C1106.04 143.039 1107.22 141.372 1102.85 129.857C1099.32 120.565 1099 120.274 1093.42 121.305C1089.71 121.99 1086.34 121.412 1084 119.688C1080.81 117.337 1080.36 114.894 1080.36 100.002V83.0002L1099.49 81.8984V60.4176L1080.36 59.3159L1079.27 36.5432H1050.47L1049.93 47.9296C1049.39 59.3153 1049.39 59.316 1043.47 59.8868C1037.66 60.4466 1037.55 60.6371 1037.55 69.4452V78.4327L1028.89 69.4931C1006 45.8406 964.303 52.0366 950.768 81.1031C938.781 106.844 952.431 135.451 980.473 143.358C991.754 146.538 1011.35 145.315 1021.55 140.793ZM981.824 82.6457C979.406 85.457 977.427 88.5314 977.427 89.4774C977.427 90.4359 985.092 91.1977 994.734 91.1977C1004.38 91.1977 1012.04 90.4359 1012.04 89.4774C1012.04 88.5314 1010.06 85.457 1007.64 82.6457C1003.99 78.4012 1001.8 77.5341 994.734 77.5341C987.665 77.5341 985.475 78.4012 981.824 82.6457Z" fill="white"/>
<path d="M865.386 85.8245L913.642 144.03H939.169V31.0778H908.289L907.287 89.4862L858.749 31.0778H831.682V144.03H864.385L865.386 85.8245Z" fill="white"/>
</svg>
