<svg width="1485" height="307" viewBox="0 0 1485 307" fill="none" xmlns="http://www.w3.org/2000/svg">
<path d="M314.309 246.065C317.488 242.886 317.504 238.492 314.35 234.825L312.534 232.713C312.155 232.273 311.603 232.019 311.022 232.018L233.6 231.849C179.826 231.732 153.696 231.325 150.264 230.554C142.044 228.705 135.497 223.674 131.873 216.422C127.579 207.829 127.674 207.468 134.014 208.317C136.901 208.703 182.464 209.02 235.264 209.02C313.783 209.02 332.294 208.767 336.925 207.631C343.903 205.92 353.159 199.173 358.696 191.762C362.411 186.789 368.161 173.783 369.414 167.516C370.808 160.546 364.167 154.867 357.736 157.531C354.944 158.687 353.105 162.13 350.262 171.52C348.579 177.075 344.625 183.488 341.08 186.411C333.299 192.824 337.891 192.576 232.211 192.285L136.733 192.021C136.424 192.02 136.12 191.948 135.844 191.81L131.264 189.52C125.351 186.563 120.311 179.762 119.24 173.294C118.851 170.943 118.26 168.57 117.926 168.02C117.593 167.47 117.236 166.57 117.133 166.02C116.886 164.7 110.977 142.251 105.288 121.02C102.783 111.67 99.0112 97.4946 96.907 89.5196C83.2688 37.8318 79.2423 23.5066 77.2184 19.4739C74.4949 14.0473 67.7368 7.05053 62.8149 4.56171C56.492 1.36445 49.1391 0.519531 27.6375 0.519531H7.43819C6.90775 0.519531 6.39904 0.730247 6.02397 1.10532L3.68668 3.44263C-0.549637 7.67895 -0.099143 12.988 4.73916 15.8461C7.15299 17.2719 10.775 17.5196 29.2176 17.5196C52.6406 17.5196 53.8114 17.7425 58.943 23.1803C61.6 25.9958 67.1534 42.5058 69.8209 55.5196C70.4409 58.5445 71.5518 62.8597 72.2895 65.1088C73.0272 67.3579 74.9965 74.3329 76.6658 80.6088C78.3351 86.8847 81.9609 100.345 84.7231 110.52C87.4852 120.695 91.3142 134.87 93.2319 142.02C95.1496 149.17 98.4656 161.32 100.601 169.02C102.736 176.72 105.917 188.195 107.67 194.52C113.146 214.28 113.966 216.849 116.854 223.301C120.26 230.909 129.058 240.058 136.264 243.487C146.709 248.458 145.222 248.38 231.059 248.452L311.025 248.519C311.556 248.519 312.065 248.309 312.441 247.933L314.309 246.065Z" fill="#F69E34"/>
<path d="M171.431 304.458C174.089 303.324 177.782 300.961 179.639 299.208C183.808 295.27 187.764 286.731 187.764 281.669C187.764 271.354 180.021 260.641 170.129 257.27C163.627 255.053 161.44 255.074 155.282 257.413C145.543 261.112 139.814 268.335 138.227 278.912C136.653 289.412 143.611 300.818 153.831 304.494C160.851 307.018 165.451 307.01 171.431 304.458Z" fill="#F69E34"/>
<path d="M299.431 304.459C305.972 301.671 311.197 296.344 313.885 289.721C315.887 284.787 316.009 283.58 315.059 278.037C313.303 267.784 307.687 260.918 297.993 257.17C292.587 255.081 288.915 255.085 283.534 257.189C276.797 259.823 271.721 264.371 269.078 270.143C265.529 277.897 265.119 283.95 267.732 290.02C273.526 303.481 287.158 309.691 299.431 304.459Z" fill="#F69E34"/>
<path d="M132.014 177.299C130.909 177.299 130.014 176.404 130.014 175.299V79.9707C130.014 78.8661 130.909 77.9707 132.014 77.9707H262.764C263.868 77.9707 264.764 78.8661 264.764 79.9707V175.299C264.764 176.404 263.868 177.299 262.764 177.299H132.014Z" fill="#4B8E96"/>
<path d="M275.764 77.9707C274.659 77.9707 273.764 78.8661 273.764 79.9707V175.299C273.764 176.404 274.659 177.299 275.764 177.299H339.764C340.868 177.299 341.764 176.404 341.764 175.299V79.9707C341.764 78.8661 340.868 77.9707 339.764 77.9707H326.801V117.063C326.801 118.841 324.654 119.735 323.392 118.482L310.409 105.592C309.627 104.815 308.365 104.818 307.586 105.597L294.73 118.453C293.47 119.712 291.316 118.82 291.316 117.038V77.9707H275.764Z" fill="#4B8E96"/>
<path d="M307.586 105.597C308.365 104.818 309.627 104.815 310.409 105.592L323.392 118.482C324.654 119.735 326.801 118.841 326.801 117.063V77.9707H291.316V117.038C291.316 118.82 293.47 119.712 294.73 118.453L307.586 105.597Z" fill="#204E68"/>
<path d="M177.144 64.4894C177.144 65.5939 178.039 66.4894 179.144 66.4894H280.829V5.01965H251.797V42.9002C251.797 44.5219 249.968 45.4694 248.644 44.5341L234.457 34.5185C233.764 34.029 232.837 34.0304 232.145 34.5221L218.07 44.5239C216.748 45.4633 214.916 44.5212 214.911 42.8993L214.802 5.01965H179.144C178.039 5.01965 177.144 5.91508 177.144 7.01965V64.4894Z" fill="#4B8E96"/>
<path d="M214.802 5.01965L214.911 42.8993C214.916 44.5212 216.748 45.4633 218.07 44.5239L232.145 34.5221C232.837 34.0304 233.764 34.029 234.457 34.5185L248.644 44.5341C249.968 45.4694 251.797 44.5219 251.797 42.9002V5.01965H214.802Z" fill="#204E68"/>
<path fill-rule="evenodd" clip-rule="evenodd" d="M493.191 248.585C497.603 246.552 503.402 242.518 506.076 239.619C508.75 236.721 511.604 234.35 512.418 234.35C513.232 234.35 514.508 237.954 515.253 242.358L516.327 248.701C516.489 249.663 517.323 250.367 518.299 250.367H531.581H544.533C545.645 250.367 546.544 249.46 546.533 248.348L545.945 187.8C545.356 127.117 545.201 124.975 540.771 116.696C535.096 106.089 522.892 97.0744 508.588 92.9235C492.701 88.3132 462.742 89.9102 448.063 96.1497C432.291 102.853 432.186 103.028 434.202 119.016C435.16 126.61 436.381 133.259 436.915 133.792C437.449 134.324 444.289 132.392 452.115 129.496C469.092 123.214 492.358 122.169 499.776 127.356C505.604 131.431 510.239 140.548 510.239 147.936V151.692C510.239 152.846 509.266 153.76 508.115 153.688L493.464 152.776C466.214 151.079 446.822 157.296 433.518 171.996C425.157 181.235 422.016 190.664 422 206.576C421.985 225.493 431.563 241.617 446.977 248.606C458.081 253.641 482.241 253.632 493.191 248.585ZM460.097 201.175C460.097 210.29 464.246 217.695 470.841 220.352C482.273 224.957 498.413 220.788 505.891 211.298C509.299 206.972 510.239 203.072 510.239 193.25C510.239 178.816 509.631 178.29 492.962 178.29C472.39 178.29 460.097 186.849 460.097 201.175Z" fill="white"/>
<path d="M652.642 249.512L658.281 247.461C659.103 247.162 659.635 246.364 659.595 245.49L658.941 231.144C658.545 222.446 658.092 215.178 657.936 214.993C657.779 214.807 653.406 215.625 648.219 216.811C636.296 219.534 626.523 216.982 623.113 210.256C621.365 206.808 620.6 193.241 620.576 165.276L620.54 127.302C620.539 126.171 621.476 125.264 622.607 125.302L639.597 125.87L656.588 126.439C657.719 126.477 658.655 125.571 658.655 124.44V109.352V94.1966C658.655 93.0921 657.76 92.1966 656.655 92.1966H639.677H622.637C621.556 92.1966 620.671 91.3387 620.638 90.2589L620.121 73.6767L619.605 57.0944C619.571 56.0146 618.686 55.1567 617.606 55.1567H601.493H585.381C584.3 55.1567 583.415 56.0146 583.382 57.0944L582.865 73.6767L582.349 90.2589C582.315 91.3387 581.43 92.1966 580.349 92.1966H571.251H562.286C561.153 92.1966 560.247 93.1356 560.287 94.2671L560.796 108.715L561.314 123.402C561.35 124.438 562.172 125.274 563.207 125.329L572.41 125.816L581.513 126.298C582.589 126.355 583.426 127.253 583.407 128.33L582.782 164.353C582.42 185.227 583.021 208.062 584.118 215.098C588.251 241.6 601.573 252.478 629.572 252.215C638.397 252.132 648.781 250.916 652.642 249.512Z" fill="white"/>
<path fill-rule="evenodd" clip-rule="evenodd" d="M748.149 247.559C753.796 244.934 759.88 240.7 761.669 238.149C765.514 232.67 768.364 234.61 769.319 243.36L769.787 247.65C769.895 248.636 770.709 249.394 771.7 249.431L785.519 249.951L798.988 250.458C800.121 250.501 801.063 249.593 801.063 248.459V192.707C801.063 129.899 800.043 122.14 790.076 109.096C787.157 105.275 780.086 99.6849 774.363 96.6727C764.611 91.5399 762.383 91.1993 738.886 91.2481C716.269 91.2935 712.638 91.8155 701.781 96.5636C689.941 101.742 689.738 101.967 689.165 110.527C688.474 120.834 691.34 135.423 693.935 134.813C694.941 134.577 701.527 132.014 708.571 129.119C724.648 122.51 745.491 121.531 753.842 126.994C759.637 130.784 764.96 141.174 764.96 148.694C764.96 153.192 764.596 153.263 741.352 153.263C718.721 153.263 717.188 153.535 704.37 159.834C688.257 167.753 681.816 174.916 677.508 189.709C671.829 209.21 677.868 232.923 691.073 242.978C701.123 250.63 706.19 252.104 722.841 252.223C734.638 252.307 740.099 251.301 748.149 247.559ZM717.956 188.513C709.201 198.899 712.168 215.764 723.557 220.352C735.364 225.108 750.748 220.871 759.539 210.443C764.071 205.066 764.961 202.099 764.961 192.365C764.961 178.985 764.128 178.286 748.25 178.301C733.366 178.317 723.845 181.526 717.956 188.513Z" fill="white"/>
<path d="M926.844 248.128C944.239 241.773 944.612 241.169 941.592 224.296C939.445 212.305 938.52 210.282 935.738 211.496C906.372 224.313 884.308 222.622 870.73 206.514C861.292 195.317 858.005 171.663 863.208 152.376C865.884 142.457 875.893 130.611 884.704 126.936C894.667 122.781 913.999 123.524 925.605 128.508C931.083 130.861 935.949 132.402 936.418 131.934C936.888 131.466 938.35 124.559 939.669 116.587C941.897 103.12 941.797 101.883 938.254 99.1604C924.239 88.3901 884.638 87.0963 864.916 96.7643C835.706 111.084 818.823 143.924 821.664 180.897C824.24 214.427 840.784 238.76 867.536 248.366C883.007 253.922 911.297 253.809 926.844 248.128Z" fill="white"/>
<path fill-rule="evenodd" clip-rule="evenodd" d="M1026.69 248.37C1031.24 246.171 1037.62 241.609 1040.86 238.233L1044.22 234.725C1045.32 233.586 1047.24 234.104 1047.61 235.638L1048.85 240.73L1050.59 247.897C1050.8 248.766 1051.57 249.389 1052.46 249.423L1066.56 249.954L1080.07 250.462C1081.21 250.505 1082.16 249.581 1082.14 248.436L1081.34 190.89C1080.75 147.972 1079.76 129.119 1077.82 123.681C1074.01 112.956 1063.93 101.993 1052.53 96.1845C1043.63 91.6434 1040.5 91.2005 1017.68 91.2478C994.961 91.2933 991.474 91.7996 980.571 96.6183L969.779 101.388C969.029 101.719 968.558 102.475 968.589 103.294L969.139 117.589C969.47 126.198 970.387 133.886 971.177 134.675C971.966 135.463 977.546 133.751 983.577 130.87C995.333 125.254 1015.62 122.649 1028.62 125.085C1037.44 126.736 1043.73 135.646 1043.74 146.504L1043.75 151.642C1043.75 152.792 1042.78 153.706 1041.63 153.641L1026.09 152.756C996.497 151.072 973.257 160.849 962.194 179.636C957.187 188.14 956.515 191.226 956.608 205.319C956.729 223.869 961.236 234.883 972.088 243.145C981.885 250.605 987.058 252.103 1003.5 252.243C1014.51 252.336 1020.58 251.322 1026.69 248.37ZM998.503 188.806C989.994 198.901 993.134 215.832 1004.35 220.352C1010.87 222.977 1021.07 222.653 1028.27 219.592C1039.1 214.985 1043.85 208.152 1045.18 195.252C1046.64 181.165 1043.91 178.29 1029.06 178.29C1015.09 178.29 1004.21 182.035 998.503 188.806Z" fill="white"/>
<path d="M1146.04 195.214C1147.15 135.082 1147.42 133.839 1160.73 127.534C1173.34 121.562 1191.09 124.7 1195.42 133.668C1196.37 135.635 1197.61 162.473 1198.17 193.306L1199.15 247.403C1199.17 248.493 1200.06 249.366 1201.15 249.366H1217.24H1233.29C1234.4 249.366 1235.29 248.471 1235.29 247.366V188.3C1235.29 119.222 1234.43 114.231 1220.23 101.429C1210.21 92.3941 1200.84 89.6234 1183.28 90.5084C1171.34 91.11 1166.94 92.3353 1158.91 97.2967C1153.51 100.626 1148 105.539 1146.67 108.214C1143.89 113.775 1142.55 111.655 1141.6 100.205L1141.17 94.9697C1141.09 93.9593 1140.26 93.1711 1139.25 93.1355L1124.48 92.616L1110 92.107C1108.87 92.0672 1107.93 92.9736 1107.93 94.1057V171.276V248.454C1107.93 249.583 1108.87 250.488 1109.99 250.453L1126.48 249.941L1143.13 249.424C1144.2 249.391 1145.05 248.528 1145.07 247.462L1146.04 195.214Z" fill="white"/>
<path fill-rule="evenodd" clip-rule="evenodd" d="M1359.73 247.995C1378.53 241.665 1379.36 240.682 1377.75 226.837C1375.78 209.837 1375.5 209.652 1360.99 215.503C1346.2 221.466 1322.51 222.514 1313.13 217.621C1301.39 211.503 1292.45 198.339 1292.45 187.169V184.294C1292.45 183.189 1293.35 182.294 1294.45 182.294H1337.79H1381.06C1382.19 182.294 1383.09 181.358 1383.06 180.229L1382.33 157.767C1381.41 129.469 1377.52 117.736 1365.04 105.595C1343.74 84.8841 1305.46 83.9909 1282.43 103.668C1263.68 119.695 1254.35 142.596 1254.35 172.615C1254.35 219.338 1276.71 247.978 1316.45 252.161C1333.89 253.996 1345.12 252.914 1359.73 247.995ZM1319.27 120.845C1305.49 122.239 1296.48 131.648 1293.19 148.097L1292.43 151.871C1292.18 153.108 1293.13 154.264 1294.39 154.264H1320.54H1346.78C1348.01 154.264 1348.95 153.163 1348.76 151.948L1347.77 145.754C1345.15 129.386 1333.71 119.385 1319.27 120.845Z" fill="white"/>
<path d="M1475.95 249.952L1483.52 247.931C1484.39 247.697 1485 246.904 1485 245.998V230.797C1485 214.289 1484.94 214.081 1480.49 215.695C1478.01 216.595 1471.17 217.332 1465.3 217.332C1448.45 217.332 1447.36 214.113 1447.09 163.774L1446.9 128.244C1446.9 127.135 1447.79 126.233 1448.9 126.233H1465.95H1483C1484.1 126.233 1485 125.338 1485 124.233V109.215V94.1969C1485 93.0923 1484.1 92.1969 1483 92.1969H1465.95H1448.89C1447.79 92.1969 1446.89 91.3014 1446.89 90.1969V73.0983V56.067C1446.89 54.9366 1445.96 54.0308 1444.83 54.0681L1429.34 54.5781L1413.67 55.0945C1412.61 55.1292 1411.77 55.9768 1411.73 57.0312L1411.22 73.6763L1410.7 90.2585C1410.67 91.3383 1409.78 92.1962 1408.7 92.1962H1400.69H1392.73C1391.63 92.1962 1390.73 93.0916 1390.73 94.1962V109.215V124.233C1390.73 125.337 1391.63 126.233 1392.73 126.233H1400.76H1408.79C1409.89 126.233 1410.79 127.128 1410.79 128.233V169.917C1410.79 216.711 1412.53 228.387 1421.16 239.331C1430.49 251.178 1454.16 255.767 1475.95 249.952Z" fill="white"/>
<path fill-rule="evenodd" clip-rule="evenodd" d="M493.191 248.585C497.603 246.552 503.402 242.518 506.076 239.619C508.75 236.721 511.604 234.35 512.418 234.35C513.232 234.35 514.508 237.954 515.253 242.358L516.044 247.03C516.37 248.957 518.042 250.367 519.999 250.367L531.581 250.367L542.502 250.367C544.733 250.367 546.535 248.551 546.513 246.324L545.945 187.8C545.356 127.117 545.201 124.975 540.771 116.696C535.096 106.089 522.892 97.0744 508.588 92.9235C492.701 88.3132 462.742 89.9102 448.063 96.1497C432.291 102.853 432.186 103.028 434.202 119.016C435.16 126.61 436.381 133.259 436.915 133.792C437.449 134.324 444.289 132.392 452.115 129.496C469.092 123.214 492.358 122.169 499.776 127.356C505.604 131.431 510.239 140.548 510.239 147.936L510.239 149.559C510.239 151.868 508.287 153.699 505.978 153.555L493.464 152.776C466.214 151.079 446.822 157.296 433.518 171.996C425.157 181.235 422.016 190.664 422 206.576C421.985 225.493 431.563 241.617 446.977 248.606C458.081 253.641 482.241 253.632 493.191 248.585ZM460.097 201.175C460.097 210.29 464.246 217.695 470.841 220.352C482.273 224.957 498.413 220.788 505.891 211.298C509.299 206.972 510.239 203.072 510.239 193.25C510.239 178.816 509.631 178.29 492.962 178.29C472.39 178.29 460.097 186.849 460.097 201.175Z" fill="white"/>
<path d="M652.642 249.512L656.894 247.965C658.541 247.366 659.608 245.769 659.528 244.021L658.941 231.144C658.545 222.446 658.092 215.178 657.936 214.993C657.779 214.807 653.406 215.625 648.219 216.811C636.296 219.534 626.523 216.982 623.113 210.256C621.365 206.808 620.6 193.241 620.576 165.276L620.542 129.377C620.54 127.111 622.42 125.295 624.688 125.371L639.597 125.87L654.51 126.37C656.776 126.445 658.655 124.632 658.655 122.367L658.655 109.352L658.655 96.201C658.655 93.9895 656.859 92.1967 654.644 92.1967L639.677 92.1966L624.586 92.1967C622.419 92.1967 620.644 90.4788 620.577 88.3168L620.121 73.6767L619.665 59.0366C619.598 56.8746 617.822 55.1568 615.656 55.1568L601.493 55.1567L587.33 55.1568C585.164 55.1568 583.388 56.8746 583.321 59.0366L582.865 73.6767L582.409 88.3168C582.342 90.4788 580.566 92.1967 578.4 92.1967L571.251 92.1966L564.369 92.1967C562.098 92.1967 560.28 94.0765 560.36 96.3418L560.796 108.715L561.249 121.568C561.322 123.642 562.97 125.317 565.046 125.426L572.41 125.816L579.575 126.195C581.732 126.309 583.411 128.108 583.374 130.263L582.782 164.353C582.42 185.227 583.021 208.062 584.118 215.098C588.251 241.6 601.573 252.478 629.572 252.215C638.397 252.132 648.781 250.916 652.642 249.512Z" fill="white"/>
<path fill-rule="evenodd" clip-rule="evenodd" d="M748.149 247.559C753.796 244.934 759.88 240.7 761.669 238.149C765.514 232.67 768.364 234.61 769.319 243.36L769.599 245.929C769.815 247.903 771.448 249.422 773.436 249.496L785.519 249.951L796.9 250.38C799.173 250.465 801.063 248.649 801.063 246.378V192.707C801.063 129.899 800.043 122.14 790.076 109.096C787.157 105.275 780.086 99.6849 774.363 96.6727C764.611 91.5399 762.383 91.1993 738.886 91.2481C716.269 91.2935 712.638 91.8155 701.781 96.5636C689.941 101.742 689.738 101.967 689.165 110.527C688.474 120.834 691.34 135.423 693.935 134.813C694.941 134.577 701.527 132.014 708.571 129.119C724.648 122.51 745.491 121.531 753.842 126.994C759.637 130.784 764.96 141.174 764.96 148.694C764.96 153.192 764.596 153.263 741.352 153.263C718.721 153.263 717.188 153.535 704.37 159.834C688.257 167.753 681.816 174.916 677.508 189.709C671.829 209.21 677.868 232.923 691.073 242.978C701.123 250.63 706.19 252.104 722.841 252.223C734.638 252.307 740.099 251.301 748.149 247.559ZM717.956 188.513C709.201 198.899 712.168 215.764 723.557 220.352C735.364 225.108 750.748 220.871 759.539 210.443C764.071 205.066 764.961 202.099 764.961 192.365C764.961 178.985 764.128 178.286 748.25 178.301C733.366 178.317 723.845 181.526 717.956 188.513Z" fill="white"/>
<path d="M926.844 248.128C944.239 241.773 944.612 241.169 941.592 224.296C939.445 212.305 938.52 210.282 935.738 211.496C906.372 224.313 884.308 222.622 870.73 206.514C861.292 195.317 858.005 171.663 863.208 152.376C865.884 142.457 875.893 130.611 884.704 126.936C894.667 122.781 913.999 123.524 925.605 128.508C931.083 130.861 935.949 132.402 936.418 131.934C936.888 131.466 938.35 124.559 939.669 116.587C941.897 103.12 941.797 101.883 938.254 99.1604C924.239 88.3901 884.638 87.0963 864.916 96.7643C835.706 111.084 818.823 143.924 821.664 180.897C824.24 214.427 840.784 238.76 867.536 248.366C883.007 253.922 911.297 253.809 926.844 248.128Z" fill="white"/>
<path fill-rule="evenodd" clip-rule="evenodd" d="M1026.69 248.37C1031.24 246.171 1037.62 241.609 1040.86 238.233L1041.68 237.374C1043.87 235.09 1047.73 236.126 1048.48 239.199L1048.85 240.73L1050.23 246.424C1050.66 248.165 1052.19 249.413 1053.98 249.48L1066.56 249.954L1077.95 250.383C1080.25 250.469 1082.15 248.618 1082.11 246.326L1081.34 190.89C1080.75 147.972 1079.76 129.119 1077.82 123.681C1074.01 112.956 1063.93 101.993 1052.53 96.1845C1043.63 91.6434 1040.5 91.2005 1017.68 91.2478C994.961 91.2933 991.474 91.7996 980.571 96.6183L971.026 100.837C969.523 101.501 968.578 103.013 968.641 104.652L969.139 117.589C969.47 126.198 970.387 133.886 971.177 134.675C971.966 135.463 977.546 133.751 983.577 130.87C995.333 125.254 1015.62 122.649 1028.62 125.085C1037.44 126.736 1043.73 135.646 1043.74 146.504L1043.75 149.518C1043.75 151.82 1041.81 153.651 1039.51 153.52L1026.09 152.756C996.497 151.072 973.257 160.849 962.194 179.636C957.187 188.14 956.515 191.226 956.608 205.319C956.729 223.869 961.236 234.883 972.088 243.145C981.885 250.605 987.058 252.103 1003.5 252.243C1014.51 252.336 1020.58 251.322 1026.69 248.37ZM998.503 188.806C989.994 198.901 993.134 215.832 1004.35 220.352C1010.87 222.977 1021.07 222.653 1028.27 219.592C1039.1 214.985 1043.85 208.152 1045.18 195.252C1046.64 181.165 1043.91 178.29 1029.06 178.29C1015.09 178.29 1004.21 182.035 998.503 188.806Z" fill="white"/>
<path d="M1146.04 195.214C1147.15 135.082 1147.42 133.839 1160.73 127.534C1173.34 121.562 1191.09 124.7 1195.42 133.668C1196.37 135.635 1197.61 162.473 1198.17 193.306L1199.12 245.435C1199.16 247.618 1200.94 249.366 1203.13 249.366L1217.24 249.366L1231.28 249.366C1233.5 249.366 1235.29 247.574 1235.29 245.362L1235.29 188.3C1235.29 119.222 1234.43 114.231 1220.23 101.429C1210.21 92.3941 1200.84 89.6234 1183.28 90.5084C1171.34 91.11 1166.94 92.3353 1158.91 97.2967C1153.51 100.626 1148 105.539 1146.67 108.214C1143.89 113.775 1142.55 111.655 1141.6 100.205L1141.32 96.7457C1141.15 94.7225 1139.49 93.1442 1137.46 93.0727L1124.48 92.616L1112.08 92.1802C1109.82 92.1004 1107.93 93.9153 1107.93 96.1821V171.276V246.386C1107.93 248.646 1109.8 250.459 1112.07 250.388L1126.48 249.941L1141.22 249.484C1143.36 249.417 1145.07 247.689 1145.11 245.555L1146.04 195.214Z" fill="white"/>
<path fill-rule="evenodd" clip-rule="evenodd" d="M1359.73 247.995C1378.53 241.665 1379.36 240.682 1377.75 226.837C1375.78 209.837 1375.5 209.652 1360.99 215.503C1346.2 221.466 1322.51 222.514 1313.13 217.621C1301.39 211.503 1292.45 198.339 1292.45 187.169V186.298C1292.45 184.087 1294.25 182.294 1296.47 182.294L1337.79 182.294L1378.98 182.294C1381.25 182.294 1383.06 180.421 1382.99 178.16L1382.33 157.767C1381.41 129.469 1377.52 117.736 1365.04 105.595C1343.74 84.8841 1305.46 83.9909 1282.43 103.668C1263.68 119.695 1254.35 142.596 1254.35 172.615C1254.35 219.338 1276.71 247.978 1316.45 252.161C1333.89 253.996 1345.12 252.914 1359.73 247.995ZM1319.27 120.845C1305.49 122.239 1296.48 131.648 1293.19 148.097L1292.91 149.474C1292.42 151.952 1294.31 154.264 1296.85 154.264L1320.54 154.264L1344.42 154.264C1346.89 154.264 1348.77 152.061 1348.39 149.628L1347.77 145.754C1345.15 129.386 1333.71 119.385 1319.27 120.845Z" fill="white"/>
<path d="M1475.95 249.952L1482.03 248.329C1483.78 247.86 1485 246.274 1485 244.461V230.797C1485 214.289 1484.94 214.081 1480.49 215.695C1478.01 216.595 1471.17 217.332 1465.3 217.332C1448.45 217.332 1447.36 214.113 1447.09 163.774L1446.91 130.259C1446.9 128.039 1448.7 126.234 1450.92 126.234L1465.95 126.233L1480.99 126.234C1483.2 126.234 1485 124.441 1485 122.229V109.215V96.2012C1485 93.9897 1483.2 92.1969 1480.99 92.1969L1465.95 92.1969L1450.9 92.1969C1448.69 92.1969 1446.89 90.4041 1446.89 88.1926L1446.89 73.0983L1446.89 58.1387C1446.89 55.8754 1445.01 54.0619 1442.75 54.1366L1429.34 54.5781L1415.55 55.0325C1413.44 55.1021 1411.74 56.7992 1411.68 58.9101L1411.22 73.6763L1410.76 88.3164C1410.69 90.4784 1408.92 92.1963 1406.75 92.1963L1400.69 92.1962L1394.74 92.1963C1392.53 92.1963 1390.73 93.9891 1390.73 96.2006V109.215V122.229C1390.73 124.44 1392.53 126.233 1394.74 126.233L1400.76 126.233L1406.78 126.233C1408.99 126.233 1410.79 128.026 1410.79 130.237V169.917C1410.79 216.711 1412.53 228.387 1421.16 239.331C1430.49 251.178 1454.16 255.767 1475.95 249.952Z" fill="white"/>
</svg>
