<svg width="1105" height="245" viewBox="0 0 1105 245" fill="none" xmlns="http://www.w3.org/2000/svg">
<path fill-rule="evenodd" clip-rule="evenodd" d="M193.813 193.121C125.64 193.121 117.472 192.953 114.389 191.491C112.5 190.594 110.473 188.963 109.886 187.866C107.682 183.746 104.137 171.987 104.676 170.582L270.199 170.038C273.651 170.038 276.776 168.639 279.038 166.377C281.3 164.115 320.017 44.7934 320.017 37.8898C320.017 30.9863 314.421 25.3898 307.517 25.3898L60.8916 25.9297L56.5283 14.4487C51.9318 -0.857855 53.958 0.120985 26.8679 0.120985L7.09375 0.115139C3.22614 0.115139 0.0908203 3.25046 0.0908203 7.11807C0.0908203 10.9857 3.22614 14.121 7.09375 14.121L20.1824 14.121C37.2187 14.6423 39.782 15.251 42.4392 19.4062C43.2182 20.6243 52.0013 48.7329 61.9573 81.8698C71.9133 115.007 84.1009 155.271 89.041 171.346L98.4516 202.822C99.5167 205.33 102.022 207.121 104.918 207.121H117.481C114.702 210.996 113.066 215.745 113.066 220.877C113.066 233.928 123.646 244.507 136.696 244.507C149.746 244.507 160.325 233.928 160.325 220.877C160.325 215.745 158.689 210.996 155.91 207.121H219.079C216.3 210.996 214.664 215.745 214.664 220.877C214.664 233.928 225.243 244.507 238.293 244.507C251.343 244.507 261.922 233.928 261.922 220.877C261.922 215.745 260.286 210.993 257.507 207.119H267.596C271.461 207.119 274.595 203.985 274.595 200.12C274.595 196.255 271.461 193.122 267.596 193.122L193.813 193.121ZM168.726 136.556H152.727L205.727 58.5566H221.717L168.726 136.556ZM149.157 98.1271C152.041 99.9452 155.464 100.861 159.427 100.876C163.39 100.876 166.807 99.9737 169.676 98.1697C172.559 96.3515 174.782 93.7308 176.345 90.3075C177.907 86.8842 178.689 82.7648 178.689 77.9495C178.703 73.1626 177.929 69.093 176.366 65.7407C174.804 62.3884 172.581 59.8387 169.697 58.0915C166.814 56.3302 163.39 55.4495 159.427 55.4495C155.464 55.4495 152.041 56.3231 149.157 58.0702C146.288 59.8174 144.072 62.3671 142.51 65.7194C140.961 69.0717 140.18 73.1484 140.166 77.9495C140.152 82.7364 140.926 86.8416 142.488 90.2648C144.051 93.6881 146.274 96.3089 149.157 98.1271ZM204.768 135.806C207.651 137.624 211.075 138.54 215.038 138.554C219.001 138.554 222.417 137.652 225.286 135.848C228.17 134.03 230.393 131.409 231.955 127.986C233.518 124.563 234.299 120.444 234.299 115.628C234.313 110.841 233.539 106.772 231.977 103.419C230.414 100.067 228.191 97.5174 225.308 95.7702C222.424 94.0089 219.001 93.1282 215.038 93.1282C211.075 93.1282 207.651 94.0018 204.768 95.7489C201.898 97.4961 199.683 100.046 198.12 103.398C196.572 106.75 195.79 110.827 195.776 115.628C195.762 120.415 196.536 124.52 198.099 127.944C199.661 131.367 201.884 133.987 204.768 135.806ZM136.696 234.171C143.793 234.171 149.546 228.415 149.546 221.313C149.546 214.211 143.793 208.455 136.696 208.455C129.599 208.455 123.846 214.211 123.846 221.313C123.846 228.415 129.599 234.171 136.696 234.171ZM238.293 234.171C245.39 234.171 251.143 228.415 251.143 221.313C251.143 214.211 245.39 208.455 238.293 208.455C231.196 208.455 225.443 214.211 225.443 221.313C225.443 228.415 231.196 234.171 238.293 234.171Z" fill="#DF9829"/>
<path d="M215.038 128.924C217.083 128.924 218.759 127.858 220.066 125.728C221.387 123.583 222.04 120.216 222.026 115.628C222.026 112.631 221.728 110.181 221.131 108.277C220.535 106.374 219.711 104.968 218.66 104.059C217.609 103.135 216.401 102.674 215.038 102.674C212.992 102.674 211.323 103.711 210.031 105.784C208.738 107.858 208.077 111.14 208.049 115.628C208.035 118.682 208.326 121.196 208.923 123.171C209.519 125.131 210.343 126.58 211.394 127.517C212.46 128.455 213.674 128.924 215.038 128.924Z" fill="#DF9829"/>
<path fill-rule="evenodd" clip-rule="evenodd" d="M215.038 138.554C211.075 138.54 207.651 137.624 204.768 135.806C201.884 133.987 199.661 131.367 198.099 127.944C196.536 124.52 195.762 120.415 195.776 115.628C195.79 110.827 196.572 106.75 198.12 103.398C199.683 100.046 201.898 97.4961 204.768 95.7489C207.651 94.0018 211.075 93.1282 215.038 93.1282C219.001 93.1282 222.424 94.0089 225.308 95.7702C228.191 97.5174 230.414 100.067 231.977 103.419C233.539 106.772 234.313 110.841 234.299 115.628C234.299 120.444 233.518 124.563 231.955 127.986C230.393 131.409 228.17 134.03 225.286 135.848C222.417 137.652 219.001 138.554 215.038 138.554ZM220.066 125.728C218.759 127.858 217.083 128.924 215.038 128.924C213.674 128.924 212.46 128.455 211.394 127.517C210.343 126.58 209.519 125.131 208.923 123.171C208.326 121.196 208.035 118.682 208.049 115.628C208.077 111.14 208.738 107.858 210.031 105.784C211.323 103.711 212.992 102.674 215.038 102.674C216.401 102.674 217.609 103.135 218.66 104.059C219.711 104.968 220.535 106.374 221.131 108.277C221.728 110.181 222.026 112.631 222.026 115.628C222.04 120.216 221.387 123.583 220.066 125.728Z" fill="white"/>
<path d="M152.727 136.556H168.726L221.717 58.5566H205.727L152.727 136.556Z" fill="white"/>
<path d="M159.427 91.245C161.473 91.245 163.149 90.1796 164.456 88.0489C165.777 85.9041 166.43 82.5376 166.416 77.9495C166.416 74.9523 166.118 72.5021 165.521 70.5987C164.924 68.6952 164.101 67.289 163.049 66.3799C161.998 65.4566 160.791 64.995 159.427 64.995C157.382 64.995 155.713 66.0319 154.42 68.1058C153.128 70.1796 152.467 73.4609 152.439 77.9495C152.424 81.0035 152.716 83.5177 153.312 85.4921C153.909 87.4524 154.733 88.9012 155.784 89.8387C156.849 90.7762 158.064 91.245 159.427 91.245Z" fill="#DF9829"/>
<path fill-rule="evenodd" clip-rule="evenodd" d="M159.427 100.876C155.464 100.861 152.041 99.9452 149.157 98.1271C146.274 96.3089 144.051 93.6881 142.488 90.2648C140.926 86.8416 140.152 82.7364 140.166 77.9495C140.18 73.1484 140.961 69.0717 142.51 65.7194C144.072 62.3671 146.288 59.8174 149.157 58.0702C152.041 56.3231 155.464 55.4495 159.427 55.4495C163.39 55.4495 166.814 56.3302 169.697 58.0915C172.581 59.8387 174.804 62.3884 176.366 65.7407C177.929 69.093 178.703 73.1626 178.689 77.9495C178.689 82.7648 177.907 86.8842 176.345 90.3075C174.782 93.7308 172.559 96.3515 169.676 98.1697C166.807 99.9737 163.39 100.876 159.427 100.876ZM164.456 88.0489C163.149 90.1796 161.473 91.245 159.427 91.245C158.064 91.245 156.849 90.7762 155.784 89.8387C154.733 88.9012 153.909 87.4524 153.312 85.4921C152.716 83.5177 152.424 81.0035 152.439 77.9495C152.467 73.4609 153.128 70.1796 154.42 68.1058C155.713 66.0319 157.382 64.995 159.427 64.995C160.791 64.995 161.998 65.4566 163.049 66.3799C164.101 67.289 164.924 68.6952 165.521 70.5987C166.118 72.5021 166.416 74.9523 166.416 77.9495C166.43 82.5376 165.777 85.9041 164.456 88.0489Z" fill="white"/>
<path fill-rule="evenodd" clip-rule="evenodd" d="M382.996 157.111L432.616 156.097L442.142 178.062H457.389C465.775 178.062 472.637 177.787 472.637 177.449C472.637 177.113 461.621 151.903 448.157 121.429L423.677 66.0208L393.388 65.0789L369.226 120.204C355.937 150.523 345.074 175.978 345.087 176.77C345.099 177.562 351.825 177.972 360.033 177.681L374.956 177.152L382.996 157.111ZM408.857 97.34C408.148 96.5299 404.234 104.113 400.16 114.192L392.753 132.516H423.395L419.964 123.863C418.078 119.103 415.097 111.52 413.341 107.011C411.584 102.502 409.567 98.15 408.857 97.34Z" fill="#DF9829"/>
<path d="M529.232 175.027C530.823 173.437 530.618 170.761 528.392 164.059C525.474 155.276 525.383 155.201 518.393 155.867C507.921 156.866 505.429 152.299 505.429 132.111V116.12H525.469V94.2584H505.429V72.3967H476.28V94.2584H463.528V116.12H476.28L476.36 133.883C476.473 158.927 480.969 169.815 493.587 175.599C500.134 178.6 526.075 178.184 529.232 175.027Z" fill="#DF9829"/>
<path fill-rule="evenodd" clip-rule="evenodd" d="M579.668 174.438C582.924 172.452 585.589 169.996 585.589 168.979C585.589 167.962 586.408 167.131 587.41 167.131C588.412 167.131 589.232 169.59 589.232 172.596V178.061H616.559V152.646C616.559 138.667 615.653 123.004 614.545 117.839C611.965 105.806 602.563 95.9137 590.497 92.5354C578.394 89.1467 554.209 90.7566 543.164 95.6861L534.443 99.5785L539.096 108.76C541.655 113.81 544.044 117.942 544.406 117.942C544.768 117.942 548.007 116.712 551.604 115.209C555.201 113.706 562.589 112.476 568.021 112.476C578.733 112.476 584.345 115.664 586.464 122.952C587.631 126.965 587.34 127.053 572.503 127.131C543.337 127.284 529.708 136.495 531.421 154.893C532.825 169.961 543.578 177.87 562.816 177.983C570.594 178.031 575.455 177.006 579.668 174.438ZM561.905 145.269C556.454 150.72 557.323 155.264 564.638 159.563C573.043 164.503 587.41 155.995 587.41 146.078C587.41 141.85 586.858 141.625 576.48 141.625C567.978 141.625 564.739 142.435 561.905 145.269Z" fill="#DF9829"/>
<path fill-rule="evenodd" clip-rule="evenodd" d="M692.197 174.656C696.224 172.827 701.962 168.53 704.95 165.107L710.383 158.883L713.305 164.373C714.912 167.393 719.421 171.739 723.325 174.032C729.286 177.534 732.524 178.112 743.543 177.645C755.173 177.152 757.295 176.484 762.217 171.769L767.77 166.449V178.061H795.097L795.09 149.368C795.084 133.587 794.248 117.681 793.232 114.022C790.851 105.449 779.384 95.0774 769.242 92.324C753.971 88.1779 714.94 93.6909 714.94 99.994C714.94 101.383 721.657 115.832 723.083 117.51C723.306 117.774 726.459 116.749 730.087 115.233C739.931 111.12 755.266 111.623 761.151 116.252C763.791 118.329 765.951 121.499 765.951 123.296C765.951 126.156 763.735 126.671 748.188 127.426C724.217 128.591 713.356 134.666 710.417 148.554C709.716 151.863 708.603 154.304 707.943 153.977C707.282 153.65 702.784 151.363 697.947 148.894C689.77 144.721 689.028 144.628 687.381 147.57C685.129 151.594 676.297 156.202 670.852 156.193C663.3 156.179 655.196 149.676 652.81 141.712C647.051 122.491 663.594 106.557 680.326 115.209C683.232 116.712 686.43 119.376 687.432 121.13C689.116 124.078 690.028 123.906 699.525 118.853C705.174 115.847 710.162 112.806 710.608 112.095C712.286 109.425 698.002 96.1744 690.261 93.2179C679.367 89.0576 656.878 90.3054 646.498 95.6463C610.882 113.972 616.093 164.582 654.809 176.359C663.76 179.082 684.538 178.135 692.197 174.656ZM741.385 144.587C737.168 148.803 738.589 156.552 744.086 159.319L744.286 159.419C746.731 160.65 748.05 161.315 749.421 161.444C751.029 161.596 752.707 161.011 756.355 159.739L756.605 159.652C763.055 157.403 765.948 153.269 765.948 146.3C765.948 141.807 765.527 141.625 755.147 141.625C747.604 141.625 743.453 142.519 741.385 144.587Z" fill="#DF9829"/>
<path fill-rule="evenodd" clip-rule="evenodd" d="M1021.4 174.825C1025.69 172.923 1030.36 169.965 1031.77 168.251C1034.06 165.475 1033.48 164.257 1026.41 157.048C1018.93 149.429 1018.23 149.115 1014.4 151.627C1008.33 155.602 996.761 156.9 989.312 154.442C983.388 152.486 977.278 146.698 977.278 143.042C977.278 142.263 991.742 141.625 1009.42 141.625H1041.56L1039.17 115.873L1049.24 117.032L1050.15 138.981C1050.85 155.958 1051.81 162.065 1054.35 165.939C1061.18 176.347 1075.36 181.269 1091.95 178.988C1105.89 177.07 1107.07 175.403 1102.7 163.888C1099.17 154.597 1098.85 154.305 1093.27 155.336C1089.56 156.021 1086.19 155.443 1083.85 153.719C1080.66 151.368 1080.21 148.926 1080.21 134.033V117.032L1099.34 115.93V94.449L1080.21 93.3473L1079.12 70.5746H1050.32L1049.78 81.961C1049.24 93.3467 1049.24 93.3474 1043.32 93.9182C1037.51 94.478 1037.4 94.6685 1037.4 103.477V112.464L1028.74 103.525C1005.85 79.872 964.153 86.0681 950.618 115.134C938.631 140.876 952.281 169.483 980.324 177.389C991.605 180.57 1011.2 179.347 1021.4 174.825ZM981.674 116.677C979.256 119.488 977.278 122.563 977.278 123.509C977.278 124.467 984.943 125.229 994.585 125.229C1004.23 125.229 1011.89 124.467 1011.89 123.509C1011.89 122.563 1009.91 119.488 1007.5 116.677C1003.84 112.433 1001.65 111.566 994.585 111.566C987.515 111.566 985.325 112.433 981.674 116.677Z" fill="white"/>
<path d="M865.236 119.856L913.492 178.061H939.02V65.1092H908.139L907.138 123.518L858.599 65.1092H831.533V178.061H864.235L865.236 119.856Z" fill="white"/>
</svg>
