<svg width="418" height="360" viewBox="0 0 418 360" fill="none" xmlns="http://www.w3.org/2000/svg">
<path d="M38.504 348.195C38.4188 347.476 38.0731 346.917 37.4671 346.519C36.861 346.121 36.1176 345.923 35.2369 345.923C34.593 345.923 34.0296 346.027 33.5466 346.235C33.0684 346.443 32.6943 346.73 32.4244 347.094C32.1593 347.459 32.0267 347.873 32.0267 348.337C32.0267 348.726 32.1191 349.059 32.3037 349.339C32.4931 349.613 32.7346 349.843 33.0281 350.028C33.3217 350.208 33.6295 350.357 33.9514 350.475C34.2734 350.589 34.5693 350.681 34.8392 350.752L36.3165 351.15C36.6953 351.249 37.1167 351.387 37.5807 351.562C38.0494 351.737 38.4969 351.976 38.923 352.279C39.3539 352.577 39.709 352.961 39.9884 353.43C40.2677 353.898 40.4074 354.474 40.4074 355.156C40.4074 355.941 40.2014 356.652 39.7895 357.286C39.3823 357.921 38.7857 358.425 37.9997 358.799C37.2185 359.173 36.2691 359.36 35.1517 359.36C34.1101 359.36 33.2081 359.192 32.4458 358.856C31.6882 358.52 31.0916 358.051 30.656 357.45C30.2251 356.848 29.9813 356.15 29.9244 355.354H31.7426C31.79 355.904 31.9746 356.358 32.2966 356.718C32.6233 357.073 33.0352 357.338 33.5324 357.513C34.0343 357.684 34.5741 357.769 35.1517 357.769C35.8241 357.769 36.4278 357.66 36.9628 357.442C37.4978 357.22 37.9216 356.912 38.2341 356.519C38.5466 356.121 38.7029 355.657 38.7029 355.127C38.7029 354.644 38.5679 354.251 38.298 353.948C38.0281 353.645 37.673 353.399 37.2327 353.209C36.7923 353.02 36.3165 352.854 35.8051 352.712L34.0154 352.201C32.879 351.874 31.9794 351.408 31.3165 350.802C30.6536 350.196 30.3222 349.403 30.3222 348.423C30.3222 347.608 30.5423 346.898 30.9827 346.292C31.4278 345.681 32.0244 345.208 32.7725 344.871C33.5253 344.531 34.3657 344.36 35.2938 344.36C36.2313 344.36 37.0646 344.528 37.7938 344.864C38.5229 345.196 39.1006 345.65 39.5267 346.228C39.9576 346.806 40.1849 347.461 40.2085 348.195H38.504Z" fill="white"/>
<path d="M47.1034 359.104V344.559H55.8818V346.121H48.8647V351.036H55.4272V352.599H48.8647V357.542H55.9954V359.104H47.1034Z" fill="white"/>
<path d="M72.4019 344.559H74.1633V354.19C74.1633 355.184 73.9289 356.072 73.4602 356.853C72.9962 357.629 72.3404 358.243 71.4928 358.692C70.6453 359.137 69.651 359.36 68.5099 359.36C67.3688 359.36 66.3745 359.137 65.5269 358.692C64.6794 358.243 64.0213 357.629 63.5525 356.853C63.0885 356.072 62.8565 355.184 62.8565 354.19V344.559H64.6178V354.048C64.6178 354.758 64.7741 355.39 65.0866 355.944C65.3991 356.493 65.8442 356.926 66.4218 357.244C67.0042 357.556 67.7002 357.712 68.5099 357.712C69.3195 357.712 70.0156 357.556 70.598 357.244C71.1803 356.926 71.6254 356.493 71.9332 355.944C72.2457 355.39 72.4019 354.758 72.4019 354.048V344.559Z" fill="white"/>
<path d="M91.5023 359.104H89.6557L94.9966 344.559H96.8148L102.156 359.104H100.309L95.9625 346.86H95.8489L91.5023 359.104ZM92.1841 353.423H99.6273V354.985H92.1841V353.423Z" fill="white"/>
<path d="M105.727 346.121V344.559H116.636V346.121H112.062V359.104H110.301V346.121H105.727Z" fill="white"/>
<path d="M122.052 359.104H120.205L125.546 344.559H127.364L132.705 359.104H130.858L126.512 346.86H126.398L122.052 359.104ZM122.733 353.423H130.177V354.985H122.733V353.423Z" fill="white"/>
<path d="M149.791 349.104H148.03C147.926 348.598 147.744 348.153 147.483 347.769C147.228 347.386 146.915 347.064 146.546 346.803C146.181 346.538 145.776 346.339 145.331 346.207C144.886 346.074 144.422 346.008 143.939 346.008C143.059 346.008 142.261 346.23 141.546 346.675C140.836 347.12 140.27 347.776 139.848 348.643C139.432 349.509 139.223 350.572 139.223 351.832C139.223 353.091 139.432 354.154 139.848 355.021C140.27 355.887 140.836 356.543 141.546 356.988C142.261 357.433 143.059 357.656 143.939 357.656C144.422 357.656 144.886 357.589 145.331 357.457C145.776 357.324 146.181 357.128 146.546 356.867C146.915 356.602 147.228 356.278 147.483 355.894C147.744 355.506 147.926 355.061 148.03 354.559H149.791C149.659 355.302 149.417 355.968 149.067 356.555C148.717 357.142 148.281 357.641 147.76 358.053C147.239 358.46 146.655 358.771 146.006 358.984C145.362 359.197 144.673 359.303 143.939 359.303C142.699 359.303 141.595 359 140.63 358.394C139.664 357.788 138.904 356.926 138.35 355.809C137.796 354.691 137.519 353.366 137.519 351.832C137.519 350.298 137.796 348.972 138.35 347.854C138.904 346.737 139.664 345.875 140.63 345.269C141.595 344.663 142.699 344.36 143.939 344.36C144.673 344.36 145.362 344.467 146.006 344.68C146.655 344.893 147.239 345.205 147.76 345.617C148.281 346.024 148.717 346.521 149.067 347.109C149.417 347.691 149.659 348.356 149.791 349.104Z" fill="white"/>
<path d="M157.034 359.104H155.188L160.529 344.559H162.347L167.688 359.104H165.841L161.495 346.86H161.381L157.034 359.104ZM157.716 353.423H165.159V354.985H157.716V353.423Z" fill="white"/>
<path d="M178.242 359.104H173.753V344.559H178.441C179.852 344.559 181.059 344.85 182.063 345.432C183.067 346.01 183.836 346.841 184.371 347.925C184.906 349.005 185.174 350.298 185.174 351.803C185.174 353.318 184.904 354.623 184.364 355.717C183.824 356.806 183.038 357.644 182.006 358.231C180.974 358.813 179.719 359.104 178.242 359.104ZM175.515 357.542H178.128C179.331 357.542 180.328 357.31 181.118 356.846C181.909 356.382 182.499 355.721 182.887 354.864C183.275 354.007 183.469 352.987 183.469 351.803C183.469 350.629 183.278 349.618 182.894 348.771C182.51 347.918 181.938 347.265 181.175 346.81C180.413 346.351 179.464 346.121 178.327 346.121H175.515V357.542Z" fill="white"/>
<path d="M204.201 351.832C204.201 353.366 203.924 354.691 203.37 355.809C202.816 356.926 202.056 357.788 201.09 358.394C200.124 359 199.021 359.303 197.781 359.303C196.54 359.303 195.437 359 194.471 358.394C193.505 357.788 192.745 356.926 192.191 355.809C191.637 354.691 191.36 353.366 191.36 351.832C191.36 350.298 191.637 348.972 192.191 347.854C192.745 346.737 193.505 345.875 194.471 345.269C195.437 344.663 196.54 344.36 197.781 344.36C199.021 344.36 200.124 344.663 201.09 345.269C202.056 345.875 202.816 346.737 203.37 347.854C203.924 348.972 204.201 350.298 204.201 351.832ZM202.497 351.832C202.497 350.572 202.286 349.509 201.864 348.643C201.448 347.776 200.882 347.12 200.167 346.675C199.457 346.23 198.661 346.008 197.781 346.008C196.9 346.008 196.102 346.23 195.387 346.675C194.677 347.12 194.111 347.776 193.69 348.643C193.273 349.509 193.065 350.572 193.065 351.832C193.065 353.091 193.273 354.154 193.69 355.021C194.111 355.887 194.677 356.543 195.387 356.988C196.102 357.433 196.9 357.656 197.781 357.656C198.661 357.656 199.457 357.433 200.167 356.988C200.882 356.543 201.448 355.887 201.864 355.021C202.286 354.154 202.497 353.091 202.497 351.832Z" fill="white"/>
<path d="M231.922 344.559V359.104H230.217L222.291 347.684H222.149V359.104H220.388V344.559H222.092L230.047 356.008H230.189V344.559H231.922Z" fill="white"/>
<path d="M239.843 359.104H237.996L243.337 344.559H245.155L250.496 359.104H248.65L244.303 346.86H244.189L239.843 359.104ZM240.525 353.423H247.968V354.985H240.525V353.423Z" fill="white"/>
<path d="M267.748 344.559V359.104H265.987V344.559H267.748Z" fill="white"/>
<path d="M286.614 344.559V359.104H284.909L276.983 347.684H276.841V359.104H275.08V344.559H276.784L284.739 356.008H284.881V344.559H286.614Z" fill="white"/>
<path d="M293.143 346.121V344.559H304.052V346.121H299.478V359.104H297.717V346.121H293.143Z" fill="white"/>
<path d="M310.571 359.104V344.559H319.349V346.121H312.332V351.036H318.894V352.599H312.332V357.542H319.463V359.104H310.571Z" fill="white"/>
<path d="M326.324 359.104V344.559H331.238C332.375 344.559 333.308 344.753 334.037 345.141C334.766 345.525 335.306 346.053 335.656 346.725C336.006 347.397 336.182 348.162 336.182 349.019C336.182 349.876 336.006 350.636 335.656 351.299C335.306 351.962 334.768 352.483 334.044 352.861C333.319 353.236 332.394 353.423 331.267 353.423H327.29V351.832H331.21C331.987 351.832 332.612 351.718 333.085 351.491C333.563 351.263 333.909 350.941 334.122 350.525C334.34 350.103 334.449 349.602 334.449 349.019C334.449 348.437 334.34 347.928 334.122 347.492C333.904 347.057 333.556 346.72 333.078 346.484C332.6 346.242 331.968 346.121 331.182 346.121H328.085V359.104H326.324ZM333.17 352.57L336.75 359.104H334.704L331.182 352.57H333.17Z" fill="white"/>
<path d="M354.451 344.559V359.104H352.746L344.82 347.684H344.678V359.104H342.917V344.559H344.621L352.576 356.008H352.718V344.559H354.451Z" fill="white"/>
<path d="M361.775 359.104V344.559H370.554V346.121H363.537V351.036H370.099V352.599H363.537V357.542H370.667V359.104H361.775Z" fill="white"/>
<path d="M376.733 346.121V344.559H387.642V346.121H383.068V359.104H381.307V346.121H376.733Z" fill="white"/>
<path fill-rule="evenodd" clip-rule="evenodd" d="M21.0485 309.222L48.2855 308.666L53.5143 320.723H61.8836C66.4867 320.723 70.2529 320.571 70.2529 320.386C70.2529 320.201 64.2063 306.364 56.8159 289.636L43.3789 259.222L26.7529 258.705L13.4902 288.964C6.19579 305.606 0.233286 319.578 0.24024 320.013C0.247044 320.448 3.93898 320.673 8.44422 320.513L16.6355 320.223L21.0485 309.222ZM35.2441 276.414C34.8546 275.969 32.7064 280.132 30.4702 285.664L26.4044 295.722H43.2237L41.3409 290.972C40.3053 288.36 38.6692 284.197 37.7051 281.722C36.7409 279.247 35.6335 276.858 35.2441 276.414Z" fill="#DF9829"/>
<path d="M101.318 319.057C102.192 318.183 102.079 316.715 100.857 313.036C99.2558 308.215 99.2057 308.174 95.3691 308.54C89.6208 309.088 88.2529 306.581 88.2529 295.5V286.722H99.2529V274.722H88.2529V262.722H72.2529V274.722H65.2529V286.722H72.2529L72.2968 296.472C72.3587 310.219 74.8267 316.196 81.7529 319.371C85.3463 321.018 99.5857 320.789 101.318 319.057Z" fill="#DF9829"/>
<path fill-rule="evenodd" clip-rule="evenodd" d="M129.003 318.733C130.79 317.643 132.253 316.295 132.253 315.737C132.253 315.179 132.703 314.722 133.253 314.722C133.803 314.722 134.253 316.072 134.253 317.722V320.722H149.253V306.771C149.253 299.098 148.755 290.501 148.147 287.666C146.731 281.061 141.57 275.631 134.947 273.776C128.304 271.916 115.028 272.8 108.966 275.506L104.179 277.642L106.733 282.682C108.137 285.454 109.449 287.722 109.648 287.722C109.846 287.722 111.624 287.047 113.599 286.222C115.573 285.397 119.628 284.722 122.61 284.722C128.49 284.722 131.57 286.472 132.733 290.472C133.374 292.675 133.214 292.723 125.07 292.766C109.061 292.85 101.579 297.906 102.52 308.005C103.29 316.276 109.193 320.617 119.753 320.679C124.022 320.706 126.69 320.143 129.003 318.733ZM119.253 302.722C116.261 305.714 116.738 308.209 120.753 310.568C125.367 313.28 133.253 308.61 133.253 303.166C133.253 300.846 132.95 300.722 127.253 300.722C122.586 300.722 120.808 301.167 119.253 302.722Z" fill="#DF9829"/>
<path fill-rule="evenodd" clip-rule="evenodd" d="M190.771 318.853C192.981 317.849 196.131 315.49 197.771 313.611L200.753 310.195L202.357 313.209C203.239 314.866 205.714 317.252 207.857 318.51C211.129 320.432 212.906 320.75 218.955 320.493C225.339 320.223 226.503 319.856 229.205 317.268L232.253 314.348V320.722H247.253L247.249 304.972C247.246 296.31 246.787 287.579 246.229 285.571C244.922 280.865 238.628 275.172 233.061 273.66C224.679 271.385 203.255 274.411 203.255 277.871C203.255 278.633 206.941 286.564 207.724 287.485C207.847 287.63 209.577 287.067 211.569 286.235C216.972 283.978 225.39 284.254 228.62 286.795C230.069 287.935 231.255 289.674 231.255 290.661C231.255 292.231 230.038 292.514 221.505 292.928C208.347 293.567 202.385 296.902 200.772 304.525C200.387 306.342 199.776 307.681 199.414 307.502C199.051 307.323 196.582 306.067 193.927 304.712C189.439 302.421 189.031 302.37 188.127 303.985C186.891 306.194 182.043 308.723 179.054 308.718C174.909 308.711 170.461 305.141 169.151 300.77C165.99 290.219 175.07 281.473 184.255 286.222C185.85 287.047 187.605 288.51 188.155 289.472C189.08 291.09 189.58 290.996 194.793 288.222C197.894 286.572 200.632 284.903 200.877 284.513C201.797 283.047 193.957 275.774 189.708 274.151C183.728 271.867 171.384 272.552 165.686 275.484C146.137 285.543 148.997 313.323 170.248 319.788C175.161 321.282 186.567 320.763 190.771 318.853ZM217.77 302.348C215.456 304.662 216.236 308.915 219.253 310.434L219.363 310.489C220.705 311.165 221.429 311.53 222.181 311.601C223.064 311.684 223.985 311.363 225.987 310.665L226.125 310.617C229.665 309.383 231.253 307.113 231.253 303.288C231.253 300.822 231.022 300.722 225.324 300.722C221.184 300.722 218.905 301.212 217.77 302.348Z" fill="#DF9829"/>
<path fill-rule="evenodd" clip-rule="evenodd" d="M371.471 318.946C373.826 317.901 376.388 316.278 377.165 315.337C378.423 313.813 378.103 313.145 374.219 309.188C370.115 305.006 369.732 304.833 367.628 306.212C364.298 308.394 357.947 309.106 353.859 307.757C350.607 306.684 347.253 303.507 347.253 301.5C347.253 301.072 355.193 300.722 364.897 300.722H382.54L381.226 286.587L386.753 287.223L387.253 299.271C387.64 308.589 388.162 311.942 389.557 314.068C393.306 319.781 401.091 322.483 410.195 321.23C417.848 320.178 418.499 319.263 416.097 312.942C414.159 307.842 413.983 307.682 410.922 308.248C408.887 308.624 407.037 308.307 405.753 307.361C404.001 306.07 403.753 304.729 403.753 296.555V287.223L414.253 286.618V274.827L403.753 274.222L403.157 261.722H387.348L387.05 267.972C386.752 274.222 386.753 274.222 383.503 274.535C380.317 274.843 380.253 274.947 380.253 279.782V284.715L375.503 279.808C362.935 266.825 340.049 270.226 332.619 286.181C326.04 300.311 333.532 316.013 348.925 320.353C355.117 322.099 365.873 321.428 371.471 318.946ZM349.666 287.028C348.339 288.571 347.253 290.259 347.253 290.778C347.253 291.304 351.46 291.722 356.753 291.722C362.046 291.722 366.253 291.304 366.253 290.778C366.253 290.259 365.167 288.571 363.84 287.028C361.835 284.698 360.633 284.222 356.753 284.222C352.873 284.222 351.67 284.698 349.666 287.028Z" fill="white"/>
<path d="M285.753 288.773L312.241 320.722H326.253V258.722H309.302L308.753 290.783L282.11 258.722H267.253V320.722H285.203L285.753 288.773Z" fill="white"/>
<path fill-rule="evenodd" clip-rule="evenodd" d="M236.874 193.553C168.701 193.553 160.533 193.385 157.45 191.923C155.561 191.026 153.534 189.395 152.947 188.298C150.743 184.179 147.198 172.42 147.737 171.014L313.26 170.471C316.712 170.471 319.837 169.071 322.099 166.809C324.361 164.547 363.079 45.2257 363.079 38.3221C363.079 31.4186 357.482 25.8221 350.579 25.8221L103.953 26.362L99.5894 14.881C94.9929 -0.425558 97.0191 0.553281 69.9289 0.553281L50.1548 0.547436C46.2872 0.547436 43.1519 3.68275 43.1519 7.55037C43.1519 11.418 46.2872 14.5533 50.1548 14.5533L63.2435 14.5533C80.2798 15.0746 82.8431 15.6833 85.5003 19.8385C86.2792 21.0566 95.0624 49.1652 105.018 82.3021C114.974 115.439 127.162 155.703 132.102 171.778L141.513 203.255C142.578 205.762 145.083 207.553 147.979 207.553H150.376H160.543C157.764 211.428 156.127 216.178 156.127 221.31C156.127 234.36 166.707 244.939 179.757 244.939C192.807 244.939 203.386 234.36 203.386 221.31C203.386 216.178 201.75 211.428 198.971 207.553H262.14C259.361 211.428 257.725 216.178 257.725 221.31C257.725 234.36 268.304 244.939 281.354 244.939C294.404 244.939 304.983 234.36 304.983 221.31C304.983 216.178 303.347 211.426 300.568 207.551H310.657C314.523 207.551 317.656 204.418 317.656 200.553C317.656 196.688 314.523 193.554 310.657 193.554L236.874 193.553ZM211.787 136.989H195.789L248.788 58.9889H264.778L211.787 136.989ZM192.218 98.5594C195.102 100.378 198.525 101.294 202.488 101.308C206.451 101.308 209.868 100.406 212.737 98.602C215.62 96.7838 217.843 94.1631 219.406 90.7398C220.968 87.3165 221.75 83.1971 221.75 78.3818C221.764 73.5949 220.99 69.5253 219.427 66.173C217.865 62.8207 215.642 60.271 212.758 58.5238C209.875 56.7625 206.451 55.8818 202.488 55.8818C198.525 55.8818 195.102 56.7554 192.218 58.5025C189.349 60.2497 187.133 62.7994 185.571 66.1517C184.022 69.504 183.241 73.5807 183.227 78.3818C183.213 83.1687 183.987 87.2738 185.549 90.6971C187.112 94.1204 189.335 96.7412 192.218 98.5594ZM247.829 136.238C250.712 138.056 254.136 138.972 258.099 138.987C262.062 138.987 265.478 138.085 268.347 136.281C271.231 134.462 273.454 131.842 275.016 128.418C276.579 124.995 277.36 120.876 277.36 116.06C277.374 111.274 276.6 107.204 275.038 103.852C273.475 100.499 271.252 97.9497 268.369 96.2025C265.485 94.4412 262.062 93.5605 258.099 93.5605C254.136 93.5605 250.712 94.4341 247.829 96.1812C244.96 97.9284 242.744 100.478 241.181 103.83C239.633 107.183 238.852 111.259 238.837 116.06C238.823 120.847 239.597 124.953 241.16 128.376C242.722 131.799 244.945 134.42 247.829 136.238ZM179.757 234.604C186.854 234.604 192.607 228.847 192.607 221.745C192.607 214.644 186.854 208.887 179.757 208.887C172.66 208.887 166.907 214.644 166.907 221.745C166.907 228.847 172.66 234.604 179.757 234.604ZM281.354 234.604C288.451 234.604 294.204 228.847 294.204 221.745C294.204 214.644 288.451 208.887 281.354 208.887C274.257 208.887 268.504 214.644 268.504 221.745C268.504 228.847 274.257 234.604 281.354 234.604Z" fill="#DF9829"/>
<path d="M258.099 129.356C260.144 129.356 261.82 128.291 263.127 126.16C264.448 124.015 265.102 120.649 265.087 116.06C265.087 113.063 264.789 110.613 264.192 108.71C263.596 106.806 262.772 105.4 261.721 104.491C260.67 103.568 259.462 103.106 258.099 103.106C256.053 103.106 254.384 104.143 253.092 106.217C251.799 108.291 251.139 111.572 251.11 116.06C251.096 119.114 251.387 121.629 251.984 123.603C252.58 125.563 253.404 127.012 254.455 127.95C255.521 128.887 256.735 129.356 258.099 129.356Z" fill="#DF9829"/>
<path fill-rule="evenodd" clip-rule="evenodd" d="M258.099 138.987C254.136 138.972 250.712 138.056 247.829 136.238C244.945 134.42 242.722 131.799 241.16 128.376C239.597 124.953 238.823 120.847 238.837 116.06C238.852 111.259 239.633 107.183 241.181 103.83C242.744 100.478 244.96 97.9284 247.829 96.1812C250.712 94.4341 254.136 93.5605 258.099 93.5605C262.062 93.5605 265.485 94.4412 268.369 96.2025C271.252 97.9497 273.475 100.499 275.038 103.852C276.6 107.204 277.374 111.274 277.36 116.06C277.36 120.876 276.579 124.995 275.016 128.418C273.454 131.842 271.231 134.462 268.347 136.281C265.478 138.085 262.062 138.987 258.099 138.987ZM263.127 126.16C261.82 128.291 260.144 129.356 258.099 129.356C256.735 129.356 255.521 128.887 254.455 127.95C253.404 127.012 252.58 125.563 251.984 123.603C251.387 121.629 251.096 119.114 251.11 116.06C251.139 111.572 251.799 108.291 253.092 106.217C254.384 104.143 256.053 103.106 258.099 103.106C259.462 103.106 260.67 103.568 261.721 104.491C262.772 105.4 263.596 106.806 264.192 108.71C264.789 110.613 265.087 113.063 265.087 116.06C265.102 120.649 264.448 124.015 263.127 126.16Z" fill="white"/>
<path d="M195.789 136.989H211.787L264.778 58.9889H248.788L195.789 136.989Z" fill="white"/>
<path d="M202.488 91.6773C204.534 91.6773 206.21 90.6119 207.517 88.4812C208.838 86.3363 209.491 82.9699 209.477 78.3818C209.477 75.3846 209.179 72.9344 208.582 71.031C207.986 69.1275 207.162 67.7213 206.111 66.8122C205.059 65.8889 203.852 65.4273 202.488 65.4273C200.443 65.4273 198.774 66.4642 197.481 68.5381C196.189 70.6119 195.528 73.8932 195.5 78.3818C195.486 81.4358 195.777 83.95 196.373 85.9244C196.97 87.8847 197.794 89.3335 198.845 90.271C199.91 91.2085 201.125 91.6773 202.488 91.6773Z" fill="#DF9829"/>
<path fill-rule="evenodd" clip-rule="evenodd" d="M202.488 101.308C198.525 101.294 195.102 100.378 192.218 98.5594C189.335 96.7412 187.112 94.1204 185.549 90.6971C183.987 87.2738 183.213 83.1687 183.227 78.3818C183.241 73.5807 184.022 69.504 185.571 66.1517C187.133 62.7994 189.349 60.2497 192.218 58.5025C195.102 56.7554 198.525 55.8818 202.488 55.8818C206.451 55.8818 209.875 56.7625 212.758 58.5238C215.642 60.271 217.865 62.8207 219.427 66.173C220.99 69.5253 221.764 73.5949 221.75 78.3818C221.75 83.1971 220.968 87.3165 219.406 90.7398C217.843 94.1631 215.62 96.7838 212.737 98.602C209.868 100.406 206.451 101.308 202.488 101.308ZM207.517 88.4812C206.21 90.6119 204.534 91.6773 202.488 91.6773C201.125 91.6773 199.91 91.2085 198.845 90.271C197.794 89.3335 196.97 87.8847 196.373 85.9244C195.777 83.95 195.486 81.4358 195.5 78.3818C195.528 73.8932 196.189 70.6119 197.481 68.5381C198.774 66.4642 200.443 65.4273 202.488 65.4273C203.852 65.4273 205.059 65.8889 206.111 66.8122C207.162 67.7213 207.986 69.1275 208.582 71.031C209.179 72.9344 209.477 75.3846 209.477 78.3818C209.491 82.9699 208.838 86.3363 207.517 88.4812Z" fill="white"/>
</svg>
